<?xml version="1.0" encoding="UTF-8"?>
<!-- Generator: visioncortex VTracer 0.6.5 -->
<svg version="1.1" xmlns="http://www.w3.org/2000/svg" width="1024" height="1024">
<path d="M0 0 C1.3 0.74 2.6 1.49 3.94 2.25 C6.1 3.21 8.26 4.16 10.43 5.11 C22.84 10.74 34.85 17.34 45.94 25.25 C46.76 25.8 47.58 26.35 48.42 26.91 C60.88 35.3 76.97 46.36 81.94 61.25 C85.63 61.36 89.13 61.29 92.81 61.06 C93.81 61.02 94.81 60.97 95.84 60.93 C100.75 60.67 105.5 60.21 110.32 59.26 C134.08 54.64 159.62 56.47 183.32 60.28 C190.78 61.46 198.38 62.25 205.94 62.25 C205.97 61.25 206 60.25 206.03 59.21 C207.19 54.13 209.86 51.4 213.44 47.81 C214.07 47.16 214.71 46.5 215.37 45.82 C222.98 38.04 230.83 31.23 239.94 25.25 C241.04 24.52 242.15 23.8 243.29 23.05 C251.44 17.82 259.78 12.99 268.25 8.31 C269.24 7.76 270.23 7.2 271.25 6.63 C281.95 0.8 292.65 -2.39 304.94 -0.75 C308 1.25 308 1.25 309.94 4.25 C310.8 5.57 311.67 6.89 312.56 8.25 C312.95 8.91 312.95 8.91 314.94 12.25 C315.45 13.05 315.97 13.85 316.49 14.67 C317.98 17.33 318.71 19.61 319.4 22.57 C319.64 23.59 319.88 24.61 320.13 25.67 C320.25 26.21 320.25 26.21 320.88 28.94 C321.13 30.05 321.39 31.16 321.66 32.3 C322.43 35.62 323.18 38.93 323.94 42.25 C324.35 44.04 324.77 45.83 325.18 47.62 C328.45 61.94 329.37 75.71 329.84 90.34 C329.92 92.68 330.01 95.02 330.11 97.36 C330.34 106.88 328.78 115.94 326.94 125.25 C326.71 126.58 326.47 127.91 326.23 129.29 C323.41 143.1 316.23 155.7 306.94 166.25 C306.44 165.75 306.44 165.75 303.94 163.25 C302.62 162.92 301.3 162.59 299.94 162.25 C300.26 163.57 300.59 164.89 300.93 166.25 C303.33 176.24 305.4 186.19 306.75 196.38 C306.87 197.28 307 198.19 307.12 199.13 C308.6 211.08 307.78 222.68 306.56 234.62 C306.44 235.93 306.31 237.24 306.18 238.59 C303.76 263.02 303.76 263.02 299.94 272.25 C299.59 273.67 299.24 275.1 298.88 276.56 C297.94 280.25 297.94 280.25 295.94 283.25 C295.83 284.14 295.73 285.02 295.62 285.94 C294.69 290.44 292.48 293.44 289.94 297.25 C285.06 305.02 285.06 305.02 283.5 307.81 C281.3 311.25 278.63 314.19 275.94 317.25 C275.22 318.2 274.49 319.15 273.75 320.12 C260.56 334.78 242.3 343.21 224.27 350.29 C222.12 351.18 220.02 352.21 217.94 353.25 C216.09 353.6 214.24 353.88 212.38 354.12 C207.1 354.94 202.45 356.35 197.5 358.32 C194.94 359.25 194.94 359.25 190.25 360.06 C189.16 360.45 188.06 360.85 186.94 361.25 C185.55 367.03 187.82 371.41 190.94 376.25 C193.61 378.22 196.04 379.69 198.94 381.25 C207.14 385.9 214.71 390.48 221.55 397.01 C224.05 399.35 226.64 401.49 229.31 403.62 C240.46 412.7 250.55 422.77 260.64 432.99 C261.51 433.87 262.38 434.75 263.28 435.65 C263.67 436.05 263.67 436.05 265.63 438.04 C267.94 440.25 267.94 440.25 270.52 442.31 C274.13 445.21 276.98 448.72 279.94 452.25 C280.26 452.62 280.26 452.62 281.92 454.5 C290.18 464.21 296.62 475.29 295.94 488.25 C294.06 494.5 290.82 498.31 284.94 501.25 C266.08 502.94 253.09 493.92 241.13 479.89 C240.41 479.02 239.68 478.15 238.94 477.25 C238.07 476.25 237.2 475.26 236.3 474.23 C228.86 465.59 228.86 465.59 226.62 460.81 C224.85 457.06 223.21 454.79 219.94 452.25 C218.62 452.58 217.3 452.91 215.94 453.25 C216.78 459.16 217.65 464.02 220.44 469.31 C223.63 475.77 223.99 482.4 224.58 489.5 C224.94 493.25 224.94 493.25 225.94 495.25 C226.31 498.4 226.64 501.53 226.94 504.69 C227.8 513.85 227.8 513.85 228.94 517.25 C227.62 517.25 226.3 517.25 224.94 517.25 C224.96 518.53 224.98 519.8 225 521.12 C225 526.23 224.51 531.25 223.88 536.31 C223.75 537.34 223.62 538.37 223.49 539.44 C220.25 565.06 216.51 590.66 212.19 616.12 C212 617.24 211.82 618.35 211.62 619.5 C209.17 633.55 205.87 643 192.44 649.81 C181.41 653.34 174.2 650.84 164.94 644.25 C156.48 634.63 157.59 619.72 157.31 607.56 C157.27 606.11 157.23 604.65 157.19 603.16 C156.99 595.31 156.93 587.49 157.05 579.65 C157.07 578.11 157.09 576.56 157.12 574.97 C157.16 572 157.23 569.03 157.33 566.05 C157.35 564.71 157.37 563.37 157.39 561.98 C157.42 560.8 157.46 559.62 157.49 558.4 C156.58 553.2 153.15 551.06 148.94 548.25 C141.52 547.36 138.02 548.08 132.43 553.04 C128.73 558.52 129.76 566.71 129.69 573.13 C129.66 575.29 129.63 577.45 129.59 579.61 C129.54 582.97 129.5 586.33 129.46 589.69 C129.32 601.1 129.1 612.49 128.15 623.87 C128.02 625.49 127.88 627.11 127.75 628.78 C126.45 635.94 123.55 641.2 118.31 646.19 C117.54 646.94 116.76 647.69 115.96 648.46 C110.69 653.11 103.12 651.63 96.62 650.5 C87.03 647.25 81.52 640.54 77.94 631.25 C73.32 615 71.41 597.93 68.94 581.25 C68.71 579.75 68.49 578.26 68.26 576.72 C55.51 491.11 55.51 491.11 68.94 464.25 C69.54 461.51 70.07 458.76 70.56 456 C70.82 454.55 71.08 453.1 71.35 451.61 C71.54 450.5 71.74 449.39 71.94 448.25 C64.83 450.64 61.75 456.61 58.38 462.94 C56.11 466.94 54.25 469.16 50.94 472.25 C49.42 473.88 47.93 475.53 46.44 477.19 C45.66 478.06 44.87 478.93 44.07 479.82 C42.45 481.67 40.89 483.57 39.38 485.5 C30.49 495.52 17.58 503.72 3.94 502.25 C-2.66 499.7 -6.34 496.96 -9.31 490.56 C-12.27 477.51 -7.65 467.87 0.94 458.25 C2.84 456.28 4.77 454.35 6.75 452.46 C9.3 449.88 11.64 447.14 14.02 444.4 C17.18 440.86 20.52 437.53 23.88 434.19 C24.54 433.52 25.2 432.85 25.89 432.16 C29.83 428.22 33.9 424.5 38.12 420.86 C40.57 418.69 42.81 416.36 45.06 414 C51.22 407.78 58 402.56 64.94 397.25 C66.69 395.84 68.44 394.42 70.19 393 C76.38 388.04 82.56 383.34 89.75 379.94 C94.95 376.6 97.12 373.1 98.94 367.25 C98.94 365.6 98.94 363.95 98.94 362.25 C95.5 360.62 95.5 360.62 90.94 359.25 C82.29 356.48 82.29 356.48 78.94 354.25 C76.47 353.76 73.99 353.33 71.5 352.94 C65.05 351.79 59.47 350.13 53.53 347.43 C50.94 346.25 50.94 346.25 47 344.94 C31.13 338.35 18.19 326.55 6.12 314.62 C5.47 313.98 4.81 313.33 4.13 312.67 C-0.29 308.26 -3.23 304.52 -5.38 298.69 C-6.77 295.01 -8.32 291.73 -10.12 288.25 C-12.49 283.63 -13.97 279.34 -15.06 274.25 C-15.72 272.93 -16.38 271.61 -17.06 270.25 C-17.82 266.85 -18.5 263.48 -19.12 260.06 C-19.3 259.15 -19.47 258.25 -19.65 257.31 C-21.91 245.21 -22.3 233.28 -22.31 221 C-22.31 220.11 -22.32 219.21 -22.32 218.29 C-22.33 206.5 -21.92 195.04 -19.82 183.41 C-17.4 170.09 -17.4 170.09 -20.12 166.62 C-21.09 165.84 -22.06 165.06 -23.06 164.25 C-47.66 135.37 -46.6 89.4 -40.06 54.25 C-39.8 52.74 -39.53 51.24 -39.25 49.68 C-37.56 41.13 -35.11 32.96 -32.19 24.75 C-31.87 23.85 -31.56 22.96 -31.23 22.04 C-25.98 7.87 -17.26 -7.44 0 0 Z " fill="#C4D7DE" transform="translate(370.0625,260.75)"/>
<path d="M0 0 C8.75 -0.4 14.49 1.1 21 7 C22.77 9.88 22.77 9.88 24.25 13 C24.75 14.03 25.25 15.06 25.77 16.12 C30.15 26.34 28.83 38.08 23.52 47.67 C18.41 55.57 12.56 60.49 2.81 61.25 C-7.46 60.58 -11.82 56.91 -17.19 48.62 C-22.55 37.91 -22.97 24.92 -18 14 C-14.15 7.81 -9.73 1.63 -2 1 C-1.34 1.33 -0.68 1.66 0 2 C0 1.34 0 0.68 0 0 Z " fill="#383F41" transform="translate(589,478)"/>
<path d="M0 0 C9.95 8.68 13.88 19.1 13.38 32.25 C12.19 42.9 6.91 50.75 -1.56 57 C-8.34 59.26 -16.63 59.2 -22.56 55 C-32.7 46.13 -36.43 37.32 -35.56 24 C-34.25 21.38 -34.25 21.38 -32.56 19 C-30.88 15 -29.62 11.65 -29.25 7.31 C-28.32 2.81 -26.29 1.53 -22.56 -1 C-15.29 -3.43 -6.95 -3.04 0 0 Z " fill="#3B4345" transform="translate(445.5625,481)"/>
<path d="M0 0 C0 2.67 0 5.33 0 8 C1.5 10.88 1.5 10.88 3 13 C3 13.66 3 14.32 3 15 C3.78 15.08 4.57 15.17 5.38 15.25 C8 16 8 16 9.38 18.31 C10.28 23.63 9.64 28.67 9 34 C6.81 33.53 4.62 33.05 2.44 32.55 C0.44 32.1 -1.56 31.67 -3.56 31.25 C-6.78 30.08 -8.5 28.97 -11.12 26.88 C-15 24 -15 24 -20 24 C-22.5 25.24 -22.5 25.24 -25 26.88 C-28.25 28.98 -31.3 30.81 -35 32 C-35.66 31.67 -36.32 31.34 -37 31 C-37.99 21.66 -37.71 12.45 -31.5 5 C-27.62 1.89 -23.83 1.64 -19 1 C-19 1.99 -19 2.98 -19 4 C-16.62 3.75 -16.62 3.75 -14 3 C-13.34 1.68 -12.68 0.36 -12 -1 C-7.31 -2.56 -4.17 -2.78 0 0 Z " fill="#212628" transform="translate(605,484)"/>
<path d="M0 0 C6.25 5.17 6.25 5.17 6.25 9.69 C4.93 9.69 3.61 9.69 2.25 9.69 C1.63 16.95 1.63 16.95 4.75 20.69 C5.57 21.35 6.4 22.01 7.25 22.69 C7.58 20.71 7.91 18.73 8.25 16.69 C8.91 16.69 9.57 16.69 10.25 16.69 C11.52 20.49 11.38 23.75 11.38 27.75 C11.38 28.47 11.38 28.47 11.38 32.1 C11.25 35.69 11.25 35.69 10.25 37.69 C9.59 37.69 8.93 37.69 8.25 37.69 C7.59 36.37 6.93 35.05 6.25 33.69 C2.81 32.06 2.81 32.06 -0.75 30.69 C-1.74 30.03 -2.73 29.37 -3.75 28.69 C-10.79 28.1 -15.61 29.11 -22.12 31.73 C-25.62 33 -29.05 33.41 -32.75 33.69 C-32.44 29.27 -32.09 26.24 -29.77 22.42 C-27.51 18.24 -27.07 15.21 -26.69 10.5 C-26.07 3.12 -26.07 3.12 -22.75 -1.31 C-15.79 -3.63 -6.37 -3.96 0 0 Z " fill="#252B2D" transform="translate(445.75,481.3125)"/>
<path d="M0 0 C1.44 0.03 2.89 0.06 4.38 0.08 C5.03 0.09 5.03 0.09 8.33 0.13 C11.41 1.05 11.41 1.05 12.79 4.36 C12.99 5.57 13.2 6.79 13.41 8.05 C13.58 8.71 13.58 8.71 14.41 12.05 C10.69 15.76 0.24 14.17 -4.77 14.14 C-5.83 14.14 -6.88 14.14 -7.97 14.14 C-11.32 14.13 -14.68 14.12 -18.03 14.11 C-20.31 14.1 -22.59 14.1 -24.87 14.09 C-30.44 14.08 -36.02 14.07 -41.59 14.05 C-40.22 3.68 -40.22 3.68 -37.59 1.05 C-32.41 0.65 -27.22 0.57 -22.03 0.42 C-21.31 0.4 -21.31 0.4 -17.68 0.26 C-11.78 0.08 -5.89 0.06 0 0 Z " fill="#BAF8F5" transform="translate(525.58935546875,253.9541015625)"/>
<path d="M0 0 C3.65 1.22 3.87 2.03 5.67 5.3 C5.92 5.75 5.92 5.75 7.18 8 C7.69 8.95 8.21 9.9 8.75 10.88 C9.83 12.81 10.91 14.74 12 16.68 C12.52 17.6 13.03 18.53 13.57 19.49 C15.71 23.25 18.04 26.87 20.39 30.5 C22.32 33.49 24.17 36.51 26 39.56 C26.6 40.55 27.2 41.55 27.81 42.57 C29 45 29 45 28 47 C25.35 47.73 22.68 48.39 20 49 C19.5 49.16 19.5 49.16 17 50 C12.48 46.61 12.07 45.1 10 40 C8.07 36.29 6.03 32.65 4 29 C3.55 28.16 3.1 27.33 2.64 26.47 C0.39 22.31 -1.96 18.61 -5 15 C-10 8.3 -10 8.3 -10 6 C-7.67 4.99 -5.34 3.99 -3 3 C-2.01 2.01 -1.02 1.02 0 0 Z " fill="#B5F8F5" transform="translate(525,196)"/>
<path d="M0 0 C2.01 1.65 4.01 3.32 6 5 C6.87 5.64 7.73 6.28 8.62 6.94 C8.85 7.28 8.85 7.28 10 9 C8.74 11.05 7.39 13.04 6 15 C4.71 17.2 3.44 19.41 2.19 21.62 C1.49 22.85 0.8 24.07 0.08 25.33 C-0.61 26.54 -1.29 27.75 -2 29 C-3.76 32.09 -5.54 35.17 -7.37 38.21 C-9 41 -9 41 -10.35 43.82 C-11.69 46.38 -11.69 46.38 -15 50 C-19.25 50.15 -22.96 49.26 -27 48 C-26.19 42.8 -23.82 39.43 -21 35 C-20.53 33.84 -20.05 32.69 -19.56 31.5 C-18.02 28.04 -16.08 25.41 -13.75 22.44 C-10.78 18.3 -8.4 13.82 -5.93 9.37 C-4.08 6.14 -2.1 3.07 0 0 Z " fill="#B4F9F6" transform="translate(497,195)"/>
<path d="M0 0 C3.88 1.91 6.37 3.73 8.31 7.62 C8.76 12.22 8.91 14.73 6.31 18.62 C1.09 22.11 -2.99 21.17 -8.75 19.31 C-12.15 16.2 -12.19 15.66 -12.06 11.25 C-10.97 4.44 -7.49 -0.76 0 0 Z " fill="#B3F8F5" transform="translate(468.6875,248.375)"/>
<path d="M0 0 C1.23 3.43 1.09 5.17 -0.06 8.62 C-4.26 13.47 -6.64 15.13 -13.06 14.62 C-17.21 12.74 -17.95 11.85 -20.06 7.62 C-20.85 1.53 -19.53 -1.2 -15.06 -5.38 C-9.47 -8.1 -3.74 -4.31 0 0 Z " fill="#B2F8F5" transform="translate(522.0625,179.375)"/>
<path d="M0 0 C8.75 -0.4 14.49 1.1 21 7 C22.77 9.88 22.77 9.88 24.25 13 C24.75 14.03 25.25 15.06 25.77 16.12 C29.42 24.63 28.84 34.32 26 43 C25.67 43 25.34 43 25 43 C25.01 41.9 25.02 40.81 25.04 39.68 C25.04 38.24 25.05 36.8 25.06 35.31 C25.07 33.89 25.09 32.46 25.1 30.99 C24.95 24.97 24.95 24.97 24 22 C23.24 21.88 22.47 21.75 21.69 21.62 C17.34 20.61 16.69 17.94 15 14 C14.92 11.33 14.91 8.67 15 6 C11.41 4.2 7.83 5.36 4 6 C3.67 6.5 3.67 6.5 2 9 C-0.62 9.69 -0.62 9.69 -3 10 C-3 9.01 -3 8.02 -3 7 C-3.99 7.66 -4.98 8.32 -6 9 C-9 9.12 -9 9.12 -12 9 C-12.99 9 -13.98 9 -15 9 C-13.78 7.84 -12.55 6.7 -11.31 5.56 C-10.63 4.92 -9.94 4.29 -9.24 3.63 C-6.75 1.82 -5.05 1.28 -2 1 C-1.34 1.33 -0.68 1.66 0 2 C0 1.34 0 0.68 0 0 Z " fill="#4C575B" transform="translate(589,478)"/>
<path d="M0 0 C4.05 1.84 5.23 3.3 8 7 C8.98 12.63 6.86 15.05 3 19 C-0.2 20.6 -2.45 20.41 -6 20 C-10 17.44 -10 17.44 -13 14 C-13.08 9.64 -11.99 5.88 -10 2 C-6.27 -0.48 -4.41 -0.38 0 0 Z " fill="#B3F8F5" transform="translate(559,249)"/>
<path d="M0 0 C1.45 -0.02 2.91 -0.05 4.4 -0.07 C5.79 -0.08 7.17 -0.08 8.59 -0.09 C9.23 -0.09 9.23 -0.09 12.46 -0.11 C15.5 0.38 15.5 0.38 17.5 4.38 C17.61 7.09 17.61 7.09 16.5 9.38 C13.17 9.94 13.17 9.94 8.75 9.86 C7.17 9.85 5.59 9.83 3.97 9.81 C2.29 9.77 0.62 9.73 -1.06 9.69 C-2.74 9.66 -4.43 9.64 -6.11 9.62 C-10.24 9.56 -14.37 9.48 -18.5 9.38 C-17.18 -2.49 -10.35 0.01 0 0 Z " fill="#BEF4F3" transform="translate(514.5,702.625)"/>
<path d="M0 0 C6.39 5.3 9.93 12.91 14 20 C14.54 20.86 15.09 21.73 15.64 22.62 C16.88 24.69 16.88 24.69 18 28 C15.43 31.11 14.06 32 10 32 C8.07 29.2 6.33 26.44 4.62 23.5 C3.68 21.91 2.73 20.31 1.79 18.72 C1.56 18.33 1.56 18.33 0.4 16.34 C-0.98 14.04 -2.44 11.82 -3.91 9.59 C-6 6 -6 6 -5 3 C-2.75 1 -2.75 1 0 0 Z " fill="#BFF4F2" transform="translate(522,668)"/>
<path d="M0 0 C3.03 1.04 5.32 2.22 8 4 C7.02 7.58 5.14 10.63 3.21 13.79 C2.68 14.67 2.15 15.55 1.61 16.45 C1.06 17.35 0.51 18.26 -0.06 19.19 C-1.16 20.99 -2.25 22.8 -3.35 24.61 C-3.59 25 -3.59 25 -4.82 27.02 C-6 29 -6 29 -7 31 C-10.56 30.62 -12.73 29.63 -16 28 C-2.69 2.69 -2.69 2.69 0 0 Z " fill="#BFF4F2" transform="translate(504,668)"/>
<path d="M0 0 C3.7 3.7 3.62 4.94 3 10 C0.77 13.48 -0.46 13.92 -4.56 14.5 C-8 14 -8 14 -11 10 C-11.74 0.28 -9.48 -0.65 0 0 Z " fill="#BFF3F2" transform="translate(546,700)"/>
<path d="M0 0 C3 3 3 3 3.06 6.44 C1.71 10.98 0.29 12.1 -4 14 C-7.26 13.26 -8.65 12.35 -11 10 C-11.38 6.06 -11.38 6.06 -11 2 C-6.34 -1.49 -5.42 -1.38 0 0 Z " fill="#BFF3F2" transform="translate(519,656)"/>
<path d="M0 0 C3.48 3.48 3.67 4.28 3 9 C0.53 12.38 -1.75 14 -6 14 C-9.44 11.51 -10.79 9.24 -11 5 C-8.13 -0.73 -6.18 -0.43 0 0 Z " fill="#BFF3F2" transform="translate(491,700)"/>
<path d="M0 0 C4 2 4 2 5 3 C13.35 3.48 13.35 3.48 18 0 C21.62 0.27 23.68 1.34 27 3 C34.43 3.57 34.43 3.57 38 0 C38.99 0.33 39.98 0.66 41 1 C39 5 39 5 35 7 C26.68 7.46 26.68 7.46 23 5 C19.46 5.32 16.37 5.88 13 7 C7.24 7.46 4.01 7.38 0 3 C0 2.01 0 1.02 0 0 Z " fill="#59666B" transform="translate(492,551)"/>
<path d="M0 0 C0.33 0.66 0.66 1.32 1 2 C1.54 2.02 1.54 2.02 4.25 2.12 C9.66 3.39 10.56 6.2 13 11 C13.33 12.32 13.66 13.64 14 15 C18.76 17.26 23.8 17.53 29 18 C29 18.33 29 18.66 29 19 C16.29 19.56 10.58 16.95 2.69 6.88 C0 3 0 3 0 0 Z " fill="#6C7C83" transform="translate(412,520)"/>
<path d="M0 0 C1 2 1 2 -0.15 4.21 C-5.64 12.21 -11.06 17.61 -21.31 18.19 C-25.17 17.99 -28.36 17.26 -32 16 C-32 15.67 -32 15.34 -32 15 C-27.88 14 -24.58 14.15 -20.44 14.75 C-15.41 15.28 -15.41 15.28 -11.94 12.94 C-10 10 -10 10 -9.19 6.94 C-7.4 2.52 -4.23 1.77 0 0 Z " fill="#6C7C83" transform="translate(613,521)"/>
</svg>
