<?xml version="1.0" encoding="UTF-8"?>
<!-- Generator: visioncortex VTracer 0.6.5 -->
<svg version="1.1" xmlns="http://www.w3.org/2000/svg" width="1024" height="1024">
<path d="M0 0 C1.68 0.97 3.35 1.97 5 3 C6.82 3.7 8.66 4.37 10.5 5 C24.85 10.4 38.53 18.11 51 27 C51.82 27.55 52.64 28.1 53.48 28.66 C85.41 50.17 85.41 50.17 88 65 C89.44 64.67 90.89 64.34 92.38 64 C95.95 63.18 98.92 63.01 102.62 63.07 C107.61 63.09 112.26 62.4 117.17 61.52 C127.57 59.81 137.78 59.57 148.3 59.66 C151.29 59.69 154.28 59.68 157.28 59.68 C159.21 59.68 161.14 59.69 163.08 59.7 C163.96 59.7 164.84 59.7 165.75 59.7 C171.12 59.76 175.84 60.54 181 62 C182.74 62.22 184.5 62.39 186.25 62.5 C192.24 62.97 198.09 63.95 204 65 C206 65.34 208 65.67 210 66 C209.76 65.28 209.52 64.56 209.27 63.82 C208.72 58.1 214.36 53.96 218 50 C218.91 49.01 219.81 48.02 220.75 47 C232.48 34.76 246.46 25.58 261 17 C261.85 16.49 262.7 15.98 263.58 15.46 C296.44 -3.98 296.44 -3.98 312 2 C323.11 11.5 325.84 26.02 328.94 39.56 C329.2 40.72 329.47 41.88 329.74 43.07 C330.5 46.38 331.25 49.69 332 53 C332.35 54.53 332.7 56.06 333.06 57.64 C333.19 58.25 333.19 58.25 333.88 61.31 C333.99 61.82 333.99 61.82 334.55 64.36 C335 67 335 67 335 72 C335.33 72.99 335.66 73.98 336 75 C336.27 80.83 336.25 86.67 336.25 92.5 C336.25 93.34 336.25 94.19 336.25 95.05 C336.24 107.32 335.78 119 333 131 C332.76 132.26 332.51 133.52 332.26 134.82 C329.31 148.19 322.17 162.66 312 172 C308.18 170.73 308.22 169.65 307 166 C307.13 166.73 307.13 166.73 307.81 170.44 C307.9 170.94 307.9 170.94 308.36 173.48 C308.81 175.97 309.27 178.46 309.73 180.95 C311.29 189.52 312.58 198.06 313.57 206.71 C314 210 314 210 315 214 C314.97 216 314.87 218 314.73 219.99 C314.65 221.16 314.56 222.34 314.48 223.55 C314.38 224.79 314.29 226.03 314.19 227.31 C314.09 228.58 314 229.85 313.9 231.15 C313.23 239.82 312.36 248.41 311 257 C310.85 258.08 310.69 259.16 310.54 260.28 C309.65 266.23 308.19 271.37 306 277 C305.84 278.2 305.67 279.39 305.5 280.62 C304.96 284.29 303.73 286.75 302 290 C301.67 291.32 301.34 292.64 301 294 C300.11 295.86 299.17 297.69 298.19 299.5 C297.69 300.44 297.18 301.38 296.67 302.34 C295.02 304.97 293.21 306.85 291 309 C290.71 309.76 290.42 310.53 290.12 311.31 C288.5 315.2 285.79 317.87 283 321 C282.5 321.66 282.5 321.66 280 325 C279.34 325 278.68 325 278 325 C277.34 326.32 276.68 327.64 276 329 C264.22 339.49 242.77 356 226 356 C226 356.66 226 357.32 226 358 C225.07 358.11 224.14 358.22 223.18 358.33 C216.6 359.18 211.02 360.1 205 363 C201.02 364.4 197.01 365.7 193 367 C194.58 377.4 198.57 380.73 207.7 385.34 C216.25 389.65 223.16 395.54 230.35 401.82 C232.64 403.81 234.94 405.78 237.27 407.71 C245.87 414.84 253.72 422.56 261.54 430.53 C265.41 434.45 269.26 438.31 273.43 441.91 C277.03 445.03 279.95 448.35 283 452 C283.39 452.37 283.39 452.37 285.38 454.25 C294.73 464.05 304.18 477.46 302.73 491.67 C301.19 498.26 297.93 502.69 292 506 C281.23 508.38 271.96 506.44 263 500 C262.14 499.41 261.27 498.82 260.38 498.21 C251 491.68 243.64 484.26 237 475 C236.32 474.2 235.64 473.39 234.94 472.56 C233.18 470.24 231.87 468 230.5 465.44 C228.05 460.91 226.04 457.68 221 456 C222.97 463.54 224.81 470.35 229 477 C230.23 481.93 230.42 486.72 230.72 491.79 C231 495 231 495 232 498 C232.2 499.96 232.36 501.91 232.5 503.88 C232.71 506.89 232.94 509.74 233.59 512.7 C234 515 234 515 233 518 C234.32 518.66 235.64 519.32 237 520 C236.67 520.99 236.34 521.98 236 523 C235.34 523 234.68 523 234 523 C234 522.34 234 521.68 234 521 C233.34 521 232.68 521 232 521 C231.99 521.84 231.97 522.69 231.96 523.56 C231.47 536.55 229.41 549.21 227.39 562.04 C226.22 569.48 225.15 576.93 224.12 584.39 C222.38 596.9 220.52 609.37 218.31 621.81 C218.11 622.96 217.91 624.11 217.7 625.3 C215.75 636.04 213.7 642.83 205 650 C204.5 650.5 204.5 650.5 202 653 C195.32 656.65 189.62 658.2 182 657 C178.69 655.19 178.69 655.19 176 653 C175.5 652.79 175.5 652.79 173 651.75 C163.6 646.26 162.63 637.76 161.71 627.85 C161.06 619.58 160.97 611.44 161.18 603.16 C161.23 600.59 161.27 598.02 161.3 595.45 C161.36 591.45 161.44 587.46 161.55 583.46 C161.65 579.57 161.7 575.68 161.75 571.78 C161.79 570.59 161.83 569.39 161.88 568.16 C161.9 562.43 161.9 558.94 157.18 555.28 C153.09 553.05 150.65 551.74 146 552 C143.31 554.25 143.31 554.25 141 557 C139.68 557.99 138.36 558.98 137 560 C136.45 562.32 136.45 562.32 136.39 565.06 C136.36 566.07 136.33 567.09 136.29 568.13 C136.28 569.22 136.26 570.31 136.25 571.44 C136.22 572.57 136.19 573.7 136.16 574.86 C136 581.49 136 588.12 136.06 594.75 C136.1 603.23 135.72 611.66 135.19 620.12 C135.12 621.35 135.05 622.57 134.97 623.83 C134.25 634.38 133.17 642.85 125.25 650.56 C124.24 651.57 123.24 652.59 122.2 653.63 C115.82 658.36 107.51 657.51 100 656 C87.99 651.4 83.2 641.87 79.97 630.09 C78.19 622.57 77.1 614.95 76 607.31 C75.74 605.58 75.48 603.84 75.23 602.1 C74.71 598.66 74.2 595.21 73.7 591.76 C73.09 587.64 72.47 583.52 71.83 579.4 C66.71 546.13 63.57 514.73 68.94 481.31 C69.1 480.32 69.25 479.33 69.41 478.31 C70.43 472.28 71.97 466.77 74 461 C74.43 459.32 74.84 457.64 75.19 455.94 C75.46 454.64 75.72 453.34 76 452 C71.1 457.2 67.53 462.23 64.26 468.58 C63 471 63 471 61 474 C60.34 474 59.68 474 59 474 C59 474.66 59 475.32 59 476 C57.37 477.7 55.69 479.36 54 481 C51.25 484.01 48.53 487.03 45.82 490.06 C43.03 492.96 40.13 495.48 37 498 C36.2 498.68 35.39 499.36 34.56 500.06 C25.92 506.6 17.26 509.28 6.62 506.96 C1.32 505.02 -2.53 501.42 -5.44 496.62 C-8.77 481.05 -3.88 470.06 6.54 458.77 C10.56 454.51 14.66 450.33 18.82 446.2 C21 444 21 444 23.31 441.12 C26 438 28.83 435.45 31.96 432.79 C33.88 431.1 35.7 429.3 37.5 427.5 C40.59 424.41 43.75 421.57 47.05 418.73 C48.82 417.16 50.48 415.46 52.12 413.75 C56.53 409.26 61.55 405.54 66.52 401.7 C69.39 399.47 72.2 397.19 75 394.88 C82.1 389.17 89.85 384.07 98 380 C99.48 377.47 99.48 377.47 100.75 374.5 C101.18 373.52 101.61 372.54 102.05 371.53 C103 369 103 369 103 367 C100.64 366.1 98.23 365.31 95.81 364.56 C88.53 362.32 88.53 362.32 85.31 360.38 C81.76 358.26 78.06 358.36 74 358 C73.67 357.67 73.34 357.34 73 357 C70.52 356.52 68.03 356.04 65.54 355.6 C61.74 354.7 58.49 352.74 55 351 C53.62 350.59 52.24 350.17 50.81 349.75 C45.56 348.05 41.46 345.18 37 342 C36.06 341.38 35.13 340.77 34.16 340.13 C30.73 337.82 27.42 335.38 24.12 332.88 C22.97 332.01 21.82 331.14 20.63 330.24 C18 328 18 328 18 326 C16.68 325.34 15.36 324.68 14 324 C12.22 322.16 12.22 322.16 10.5 320.06 C8.08 317.12 6.14 315.36 3 313 C-0.81 306.72 -3.51 299.89 -6 293 C-6.46 292.14 -6.92 291.27 -7.39 290.38 C-9.41 286.13 -10.72 281.76 -12 277.25 C-12.25 276.43 -12.5 275.6 -12.75 274.75 C-16.97 260.05 -18.49 245.23 -18.76 230 C-18.81 227.37 -18.89 224.74 -18.97 222.1 C-19.35 206.81 -17.51 192.42 -14.1 177.55 C-14 174 -14 174 -16.22 171.79 C-16.68 171.5 -16.68 171.5 -19 170 C-37.19 148.66 -39.67 118.82 -40 92 C-40.01 91.21 -40.01 91.21 -40.06 87.21 C-39.91 76.79 -37.79 66.45 -36.06 56.19 C-35.98 55.71 -35.98 55.71 -35.58 53.3 C-34.5 47.01 -32.94 41.08 -31 35 C-30.55 33.56 -30.09 32.11 -29.62 30.62 C-20.76 5.4 -20.76 5.4 -11 1 C-6.25 0.81 -6.25 0.81 -2 1 C-1.34 0.67 -0.68 0.34 0 0 Z " fill="#C0D4DC" transform="translate(365,257)"/>
<path d="M0 0 C-7.2 7.94 -14.84 13.47 -25.47 15.33 C-28 16 -28 16 -31 19 C-31.57 19.25 -31.57 19.25 -34.44 20.5 C-40.88 23.57 -46.22 28.78 -51 34 C-51 34.99 -51 35.98 -51 37 C-51.74 36.77 -52.49 36.55 -53.25 36.31 C-58.07 35.77 -60.92 39.71 -64 43 C-65.67 45.33 -67.34 47.66 -69 50 C-72.83 52.97 -73.9 53 -79 53 C-79.33 53.33 -79.33 53.33 -81 55 C-81.33 54.01 -81.66 53.02 -82 52 C-85.17 54.22 -86.87 55.75 -88.62 59.25 C-89.08 60.16 -89.53 61.06 -90 62 C-90.99 62 -91.98 62 -93 62 C-92.44 62.56 -91.89 63.11 -91.31 63.69 C-90.55 64.45 -89.79 65.21 -89 66 C-88.09 66.87 -87.18 67.73 -86.25 68.62 C-84 71 -84 71 -84 73 C-83.01 73.33 -82.02 73.66 -81 74 C-80.81 77.06 -80.81 77.06 -81 80 C-85 78 -85 78 -87.19 76.06 C-92.13 72.43 -96.99 70.5 -103 72 C-105.35 71.39 -107.68 70.71 -110 70 C-118 68.14 -125.81 67.47 -134 67 C-134.73 66.95 -134.73 66.95 -138.44 66.68 C-146.46 66.15 -154.17 65.95 -162.16 66.75 C-166.11 67.1 -170.04 67 -174 67 C-175.11 67.19 -176.23 67.37 -177.38 67.56 C-180 68 -180 68 -183 67 C-185.07 67.24 -187.14 67.56 -189.19 67.94 C-190.27 68.13 -191.36 68.33 -192.48 68.53 C-193.31 68.68 -194.14 68.84 -195 69 C-193.06 70.94 -189.4 69.94 -186.87 69.84 C-186.12 69.82 -186.12 69.82 -182.33 69.68 C-180.72 69.62 -179.1 69.56 -177.44 69.5 C-158.27 68.89 -139.61 69.22 -120.56 71.38 C-119.54 71.49 -118.51 71.6 -117.46 71.72 C-111.27 72.49 -105.87 73.91 -100 76 C-98.19 76.39 -96.38 76.77 -94.56 77.12 C-87.88 78.85 -83.69 83.14 -79 88 C-79.93 89.03 -80.86 90.06 -81.81 91.12 C-83.9 93.53 -85.15 95.32 -86.5 98.25 C-88.4 101.74 -90.38 102.55 -94 104 C-94.33 103.01 -94.66 102.02 -95 101 C-95.74 101.68 -96.49 102.36 -97.25 103.06 C-100 105 -100 105 -104 104 C-104.37 104.23 -104.37 104.23 -106.25 105.38 C-110.56 107.92 -115.08 108 -120 108 C-120.33 108.99 -120.66 109.98 -121 111 C-125.75 110.12 -125.75 110.12 -128 109 C-128 107.68 -128 106.36 -128 105 C-129.65 105.33 -131.3 105.66 -133 106 C-133.16 104.68 -133.16 104.68 -134 98 C-134.66 98 -135.32 98 -136 98 C-135.75 98.78 -135.5 99.57 -135.25 100.38 C-135.17 101.24 -135.09 102.11 -135 103 C-135.66 103.33 -135.66 103.33 -139 105 C-139.33 104.34 -139.66 103.68 -140 103 C-140.5 103.16 -140.5 103.16 -143 104 C-144.01 103.65 -145.02 103.3 -146.06 102.94 C-146.55 102.78 -146.55 102.78 -149 102 C-149.66 102.66 -150.32 103.32 -151 104 C-153.01 103.36 -155.01 102.69 -157 102 C-160.46 101.8 -162.7 101.9 -166 103 C-166 102.34 -166 101.68 -166 101 C-168.64 101.33 -171.28 101.66 -174 102 C-174 102.66 -174 103.32 -174 104 C-175.03 104.1 -176.06 104.21 -177.12 104.31 C-180.99 105 -183.59 106.1 -187 108 C-191 110 -191 110 -194.62 110.94 C-198 112 -198 112 -200 115 C-197 114 -197 114 -196 112 C-193.44 112.38 -193.44 112.38 -191 113 C-195.23 116.17 -196.83 116.91 -202 117 C-204.36 115.72 -206.7 114.38 -209 113 C-212.44 112.75 -212.44 112.75 -215 113 C-215 112.34 -215 111.68 -215 111 C-215.41 110.88 -215.41 110.88 -217.5 110.25 C-224.05 107.91 -229.41 103.45 -233.19 97.62 C-236.16 93.8 -238.69 92.11 -243 90 C-241 86 -241 86 -238.44 83.69 C-235.49 80.44 -235.25 78.31 -235 74 C-234.34 74 -233.68 74 -233 74 C-232.65 72.34 -232.32 70.67 -232 69 C-230 67 -230 67 -226 67 C-226 66.34 -226 65.68 -226 65 C-223 63.88 -223 63.88 -220 63 C-223.1 58.92 -225.2 56.73 -230 55 C-230.33 54.01 -230.66 53.02 -231 52 C-231.66 51.67 -232.32 51.34 -233 51 C-234.75 48.34 -235.99 46.03 -237 43 C-238.32 42.34 -239.64 41.68 -241 41 C-242.47 39.51 -243.89 37.96 -245.25 36.38 C-245.96 35.56 -246.66 34.74 -247.39 33.9 C-247.92 33.27 -248.45 32.65 -249 32 C-239.69 32 -226.01 49.08 -220.5 56.25 C-219.03 58.94 -218.52 61.02 -218 64 C-217.28 63.83 -217.28 63.83 -213.62 63 C-210.05 62.18 -207.08 62.01 -203.38 62.07 C-198.39 62.09 -193.74 61.4 -188.83 60.52 C-178.43 58.81 -168.22 58.57 -157.7 58.66 C-154.71 58.69 -151.72 58.68 -148.72 58.68 C-146.79 58.68 -144.86 58.69 -142.92 58.7 C-142.04 58.7 -141.16 58.7 -140.25 58.7 C-134.88 58.76 -130.16 59.54 -125 61 C-123.26 61.22 -121.5 61.39 -119.75 61.5 C-113.76 61.97 -107.91 62.95 -102 64 C-100 64.34 -98 64.67 -96 65 C-96.24 64.28 -96.48 63.56 -96.73 62.82 C-97.28 57.1 -91.64 52.96 -88 49 C-87.09 48.01 -86.19 47.02 -85.25 46 C-73.52 33.76 -59.54 24.58 -45 16 C-44.15 15.49 -43.3 14.98 -42.42 14.46 C-29.03 6.54 -16.06 -0.5 0 0 Z " fill="#E3ECEE" transform="translate(671,258)"/>
<path d="M0 0 C1.21 1.06 2.42 2.11 3.66 3.2 C5.95 5.19 8.25 7.15 10.59 9.08 C19.18 16.22 27.03 23.94 34.85 31.9 C38.72 35.83 42.58 39.68 46.75 43.29 C50.35 46.4 53.27 49.72 56.31 53.38 C57.1 54.12 57.88 54.86 58.69 55.62 C68.04 65.42 77.49 78.83 76.04 93.05 C74.5 99.63 71.24 104.07 65.31 107.38 C54.55 109.75 45.27 107.81 36.31 101.38 C35.45 100.78 34.58 100.19 33.69 99.59 C24.32 93.06 16.95 85.64 10.31 76.38 C9.63 75.57 8.95 74.77 8.25 73.94 C6.49 71.61 5.18 69.37 3.81 66.81 C0.77 61.24 -1.78 58.71 -7.69 56.38 C-10.07 52.81 -9.69 50.57 -9.69 46.38 C-11.44 42.19 -11.44 42.19 -13.69 38.38 C-14.35 38.54 -14.35 38.54 -17.69 39.38 C-17.69 40.37 -17.69 41.36 -17.69 42.38 C-18.35 42.38 -19.01 42.38 -19.69 42.38 C-20.72 39.93 -20.72 39.93 -21.75 36.69 C-22.09 35.63 -22.43 34.58 -22.79 33.49 C-23.69 30.38 -23.69 30.38 -24.21 27.73 C-24.69 25.38 -24.69 25.38 -26.19 21.31 C-28.03 15.91 -29.11 10.09 -28.69 4.38 C-27.7 4.04 -26.71 3.72 -25.69 3.38 C-25.88 -0.12 -25.88 -0.12 -26.69 -4.62 C-26.93 -6.23 -27.18 -7.84 -27.44 -9.5 C-28.69 -13.62 -28.69 -13.62 -31.25 -15 C-32.05 -15.21 -32.86 -15.41 -33.69 -15.62 C-34.02 -16.62 -34.35 -17.61 -34.69 -18.62 C-23.8 -21.35 -8.1 -6.92 0 0 Z " fill="#C8D9DF" transform="translate(591.6875,655.625)"/>
<path d="M0 0 C6.69 11.02 9 21.87 5.88 34.56 C3.76 38.44 1.47 40.32 -2 43 C-3.01 44.66 -4.01 46.33 -5 48 C-11.53 53.73 -16.03 53.48 -24.62 52.44 C-33.76 49.43 -37.49 40.75 -40.25 32.06 C-42.28 21.04 -40.07 11.7 -34.81 1.94 C-25.39 -5.32 -9.15 -8.65 0 0 Z " fill="#2B3032" transform="translate(609,485)"/>
<path d="M0 0 C0.51 0.05 0.51 0.05 3.11 0.28 C11.84 1.24 15.12 3.82 19.46 11.64 C24.83 22.77 24.99 35.05 19 46 C14.74 52.21 10.57 56.37 3 58 C-2.38 57.86 -6.9 57.65 -11 54 C-12.3 51.73 -13.48 49.41 -14.67 47.07 C-16.52 44.19 -18.95 43.42 -22 42 C-26.04 33.92 -23.45 26.41 -20.62 18.44 C-20.47 17.98 -20.47 17.98 -19.66 15.65 C-19.05 13.88 -18.44 12.11 -17.81 10.34 C-17.14 8.4 -16.51 6.43 -15.9 4.47 C-13.24 -2.85 -6.3 -0.97 0 0 Z " fill="#2B3133" transform="translate(435,481)"/>
<path d="M0 0 C0.66 0 1.32 0 2 0 C1.58 3.95 0.88 7.36 -0.41 11.12 C-2.08 16.04 -3.19 20.98 -4.19 26.06 C-4.36 26.91 -4.54 27.76 -4.72 28.63 C-5.5 32.52 -6 36.15 -5.99 40.12 C-6 44.39 -6.96 47.87 -8 52 C-8.32 56.75 -8.44 61.49 -8.56 66.25 C-9 71 -9 71 -10.55 75.29 C-12.42 81.36 -12.17 86.59 -11.81 92.88 C-11.77 93.98 -11.72 95.09 -11.68 96.23 C-11.02 109.98 -7.86 122.18 -3 135 C-2.67 136.32 -2.34 137.64 -2 139 C-1 142 -1 142 1 143 C1 143.99 1 144.98 1 146 C1.99 146.99 2.98 147.98 4 149 C4.68 151.33 5.35 153.66 6 156 C6.66 156.33 7.32 156.66 8 157 C8 157.66 8 158.32 8 159 C8.66 159 9.32 159 10 159 C12 162 12 162 12 166 C12.41 166.06 12.41 166.06 14.5 166.38 C15.32 166.58 16.15 166.79 17 167 C17.04 169 17.04 171 17 173 C18.32 173.66 19.64 174.32 21 175 C22.02 176.99 23.02 178.99 24 181 C25.32 181.99 26.64 182.98 28 184 C28 184.66 28 185.32 28 186 C28.66 186 29.32 186 30 186 C30.99 186.99 31.98 187.98 33 189 C38.23 192.07 43.4 194.67 49 197 C51.01 197.98 53.01 198.98 55 200 C59.5 202.25 64.08 203.89 68.81 205.59 C72.04 207.02 74.3 208.75 77 211 C78.66 211.36 80.33 211.69 82 212 C84.68 213.3 87.35 214.64 90 216 C91.66 216.72 93.33 217.42 95 218.12 C96.32 218.74 97.64 219.36 99 220 C99 220.66 99 221.32 99 222 C99.45 222.06 99.45 222.06 101.75 222.38 C105 223 105 223 109 225 C109.11 231.02 107.06 232.94 103 237 C102.19 240.81 102.19 240.81 102 244 C100.35 244 98.7 244 97 244 C94.65 245.98 92.32 247.98 90 250 C89.01 249.67 88.02 249.34 87 249 C88.23 244.07 88.83 244.32 93.25 242.44 C99.77 239.14 101.97 234.86 104 228 C104 227.34 104 226.68 104 226 C101.64 225.1 99.23 224.31 96.81 223.56 C89.53 221.32 89.53 221.32 86.31 219.38 C82.76 217.26 79.06 217.36 75 217 C74.67 216.67 74.34 216.34 74 216 C71.52 215.52 69.03 215.04 66.54 214.6 C62.74 213.7 59.49 211.74 56 210 C55.31 209.79 55.31 209.79 51.81 208.75 C46.56 207.05 42.46 204.18 38 201 C37.06 200.38 36.13 199.77 35.16 199.13 C31.73 196.82 28.42 194.38 25.12 191.88 C23.97 191.01 22.82 190.14 21.63 189.24 C19 187 19 187 19 185 C17.68 184.34 16.36 183.68 15 183 C13.22 181.16 13.22 181.16 11.5 179.06 C9.08 176.12 7.14 174.36 4 172 C0.19 165.72 -2.51 158.89 -5 152 C-5.46 151.14 -5.92 150.27 -6.39 149.38 C-8.41 145.13 -9.72 140.76 -11 136.25 C-11.25 135.43 -11.5 134.6 -11.75 133.75 C-15.97 119.05 -17.49 104.23 -17.76 89 C-17.81 86.37 -17.89 83.74 -17.97 81.1 C-18.35 65.8 -16.47 51.37 -13.2 36.45 C-13.16 35.88 -13.16 35.88 -13 33 C-14.32 32.01 -15.64 31.02 -17 30 C-17 29.34 -17 28.68 -17 28 C-15.68 27.34 -14.36 26.68 -13 26 C-12.23 23.36 -11.59 20.69 -11 18 C-10.41 16.03 -9.79 14.07 -9.12 12.12 C-8.82 11.2 -8.51 10.27 -8.2 9.32 C-7 7 -7 7 -3 5 C-1.98 3.35 -0.97 1.68 0 0 Z " fill="#E3ECEE" transform="translate(364,398)"/>
<path d="M0 0 C2.94 2.94 2.41 4.96 2 9 C0 11.94 0 11.94 -2 14 C-1.28 13.55 -0.56 13.09 0.19 12.62 C1.12 12.42 2.04 12.21 3 12 C8 16.78 8 16.78 8 21 C8.66 21 9.32 21 10 21 C10 21.99 10 22.98 10 24 C10.66 24 11.32 24 12 24 C13.08 25.96 14.06 27.97 15 30 C15.89 31.79 16.79 33.59 17.69 35.38 C18.46 36.92 19.23 38.46 20 40 C19.24 40.43 18.47 40.87 17.69 41.31 C15 43 15 43 12 46 C11.92 49 11.91 52 12 55 C9.98 57.02 5.72 56.11 3.1 56.1 C2.29 56.1 2.29 56.1 -1.79 56.09 C-3.5 56.08 -5.22 56.07 -6.94 56.06 C-8.65 56.06 -10.36 56.05 -12.08 56.05 C-16.38 56.04 -20.69 56.02 -25 56 C-27 56 -27 56 -29 58 C-33.22 58.55 -35.17 58.73 -38.44 55.88 C-40.3 52.45 -40.8 50.84 -40 47 C-37.06 44.31 -37.06 44.31 -34 42 C-33.67 41.01 -33.34 40.02 -33 39 C-32.5 38.84 -32.5 38.84 -30 38 C-28.57 35.34 -28.57 35.34 -27.12 31.94 C-25.37 27.95 -23.62 24.16 -21.25 20.5 C-19 17 -19 17 -17.94 14.06 C-17 12 -17 12 -13 11 C-12.67 11.66 -12.34 12.32 -12 13 C-12.08 11.43 -12.17 9.87 -12.25 8.25 C-12.23 4.87 -12.17 3.31 -10.5 0.31 C-6.75 -1.66 -4.04 -0.91 0 0 Z " fill="#C4D9DF" transform="translate(520,656)"/>
<path d="M0 0 C6.26 1.56 7.28 6.49 10 12 C10.74 13.38 11.49 14.76 12.25 16.19 C14.6 21.57 14.9 27.26 15.51 33.05 C15.92 36.36 16.52 39.31 17.44 42.5 C19.43 49.78 20.13 57.25 21 64.72 C21.11 65.73 21.23 66.74 21.35 67.78 C21.45 68.69 21.55 69.6 21.66 70.53 C22 73 22 73 23 77 C22.97 79 22.87 81 22.73 82.99 C22.65 84.16 22.56 85.34 22.48 86.55 C22.43 87.17 22.43 87.17 22.19 90.31 C22.09 91.58 22 92.85 21.9 94.15 C21.23 102.82 20.36 111.41 19 120 C18.85 121.08 18.69 122.16 18.54 123.28 C17.65 129.23 16.19 134.37 14 140 C13.84 141.2 13.67 142.39 13.5 143.62 C12.96 147.29 11.73 149.75 10 153 C9.67 154.32 9.34 155.64 9 157 C8.11 158.86 7.17 160.69 6.19 162.5 C5.94 162.97 5.94 162.97 4.67 165.34 C3.02 167.97 1.21 169.85 -1 172 C-1.29 172.76 -1.58 173.53 -1.88 174.31 C-3.5 178.2 -6.21 180.87 -9 184 C-9.99 185.32 -10.98 186.64 -12 188 C-12.66 188 -13.32 188 -14 188 C-14.66 189.32 -15.32 190.64 -16 192 C-27.78 202.49 -49.23 219 -66 219 C-66 219.66 -66 220.32 -66 221 C-66.93 221.11 -67.86 221.22 -68.82 221.33 C-75.4 222.18 -80.98 223.1 -87 226 C-90.98 227.4 -94.99 228.7 -99 230 C-98.35 234.19 -97.43 238 -96 242 C-99.56 239.63 -99.85 238.34 -101.19 234.38 C-101.53 233.37 -101.88 232.37 -102.23 231.34 C-102.48 230.57 -102.74 229.79 -103 229 C-101.68 228.67 -100.36 228.34 -99 228 C-99 227.34 -99 226.68 -99 226 C-96.59 224.78 -96.59 224.78 -93.38 223.5 C-92.33 223.08 -91.29 222.65 -90.21 222.22 C-88.04 221.39 -85.83 220.64 -83.6 219.97 C-82.74 219.65 -81.88 219.33 -81 219 C-81 218.34 -81 217.68 -81 217 C-77.29 215.11 -73.98 214 -69.88 213.25 C-64.37 212.15 -59.85 209.41 -55.02 206.66 C-52.38 205.21 -49.8 204.08 -47 203 C-46.59 202.75 -46.59 202.75 -44.5 201.5 C-42 200 -42 200 -39.75 199.21 C-36.24 197.67 -33.57 195.55 -30.56 193.19 C-29.47 192.34 -28.38 191.48 -27.25 190.61 C-26.18 189.75 -25.11 188.89 -24 188 C-22.95 187.17 -21.9 186.33 -20.81 185.47 C-14.81 180.2 -11.04 173.22 -7.33 166.23 C-5.35 162.91 -2.93 160 -0.45 157.04 C1 155 1 155 2 151 C2.62 149.93 3.24 148.86 3.88 147.75 C6.06 143.9 7.54 140.18 9 136 C9.52 134.58 10.03 133.15 10.56 131.69 C13.22 123.03 14.26 115.04 14 106 C14.66 106 15.32 106 16 106 C15.67 102.37 15.34 98.74 15 95 C15.66 95 16.32 95 17 95 C16.84 93.85 16.67 92.69 16.51 91.5 C16.03 87.28 15.89 83.24 15.9 79 C15.9 78.27 15.9 78.27 15.91 74.57 C15.92 73.81 15.92 73.81 15.94 70 C15.94 68.46 15.95 66.92 15.95 65.34 C15.96 61.56 15.98 57.78 16 54 C15.34 54 14.68 54 14 54 C13.3 50.29 12.89 46.64 12.62 42.88 C12.19 37.86 11.2 33.2 9.89 28.34 C9.22 25.81 8.6 23.27 8.02 20.72 C7.68 19.26 7.35 17.81 7 16.31 C6.69 14.95 6.38 13.58 6.06 12.18 C5 9 5 9 2 8 C0.81 3.94 0.81 3.94 0 0 Z " fill="#E2ECEE" transform="translate(657,394)"/>
<path d="M0 0 C4.52 0.7 6.93 2.22 10.62 4.89 C11.18 5.29 11.18 5.29 14.05 7.32 C16.74 9.58 16.74 9.58 17.74 12.58 C18.4 12.91 19.06 13.24 19.74 13.58 C19.29 15.03 18.83 16.47 18.37 17.96 C16.81 23.12 15.76 28.29 14.74 33.58 C14.41 34.57 14.08 35.56 13.74 36.58 C13.08 36.58 12.42 36.58 11.74 36.58 C10.21 41.9 9.66 46.81 9.43 52.33 C9.04 57.83 8.53 60.39 3.74 63.58 C1.5 64.9 -0.76 66.17 -3.07 67.37 C-5.26 68.58 -5.26 68.58 -9.26 71.58 C-9.92 71.58 -10.58 71.58 -11.26 71.58 C-12.94 67.57 -13.26 65.03 -13.26 60.58 C-13.92 60.58 -14.58 60.58 -15.26 60.58 C-15.1 59.89 -14.95 59.19 -14.78 58.48 C-14.22 55.37 -14 52.37 -13.83 49.21 C-13.75 48 -13.68 46.78 -13.61 45.53 C-13.46 42.99 -13.32 40.45 -13.18 37.91 C-12.78 31.44 -12.15 26.46 -9.26 20.58 C-8.41 16.77 -7.76 12.95 -7.1 9.11 C-5.14 0.92 -5.14 0.92 0 0 Z " fill="#E3ECED" transform="translate(381.2578125,414.41796875)"/>
<path d="M0 0 C5.87 1.96 9.39 5.39 12 11 C12.46 16.83 11.16 21.37 9.31 26.88 C8.76 28.56 8.2 30.25 7.65 31.94 C7.51 32.36 7.51 32.36 6.81 34.5 C5.59 38.27 4.48 42.07 3.38 45.88 C-2.19 64.94 -2.19 64.94 -4.5 70.81 C-7.57 79.38 -9.67 88.3 -10.94 97.31 C-12 102 -12 102 -14.31 104.38 C-17 105 -17 105 -19.81 104.25 C-24.3 99.64 -22.11 91.89 -21 86 C-20.69 85.1 -20.37 84.2 -20.05 83.27 C-18.88 79.63 -18.22 76.07 -17.6 72.29 C-17.35 70.82 -17.1 69.34 -16.84 67.83 C-16.32 64.75 -15.81 61.67 -15.3 58.58 C-14.02 51.11 -12.6 44.12 -10 37 C-9.47 34.78 -8.96 32.55 -8.5 30.31 C-7.5 25.86 -6.54 21.87 -4 18 C-3.34 18 -2.68 18 -2 18 C-2.02 17.04 -2.05 16.07 -2.07 15.08 C-2.08 14.45 -2.08 14.45 -2.12 11.25 C-2.15 10 -2.17 8.74 -2.2 7.45 C-2 4 -2 4 0 0 Z " fill="#E2EBED" transform="translate(470,635)"/>
<path d="M0 0 C0.81 3.94 1 6 0 10 C0.08 11.63 0.17 13.26 0.25 14.94 C0.33 20.02 -0.99 21.77 -5 25 C-6.64 29.92 -6 35.16 -5.87 40.3 C-5.84 42.54 -5.91 44.77 -6 47 C-6.33 47.16 -6.33 47.16 -8 48 C-8.38 50.25 -8.38 50.25 -8.56 53 C-8.9 57.9 -8.9 57.9 -10 59 C-10.16 63.1 -10.27 67.07 -9 71 C-8.01 71.33 -7.02 71.66 -6 72 C-6.99 72 -7.98 72 -9 72 C-8.12 78.88 -8.12 78.88 -7 80 C-6.93 82.12 -6.92 84.25 -6.94 86.38 C-6.95 87.54 -6.96 88.7 -6.96 89.9 C-6.98 90.92 -6.99 91.95 -7 93 C-7 96.39 -6.5 99.52 -6 102.88 C-5.31 107.85 -4.9 112.61 -5 117.62 C-5.17 127.33 -3.15 136.57 -1 146 C0.61 153.85 1.62 161.73 2.54 169.69 C3 173 3 173 4 175 C4.14 176.11 4.29 177.23 4.44 178.38 C5 182 5 182 7 186 C7 187.65 7 189.3 7 191 C7.97 193.02 8.97 195.02 10 197 C10.69 199.88 10.69 199.88 11 202 C-0.27 192.34 -0.92 174.18 -2.94 160.5 C-3.2 158.75 -3.46 157 -3.73 155.25 C-4.25 151.77 -4.77 148.29 -5.28 144.81 C-5.9 140.67 -6.53 136.53 -7.17 132.39 C-12.29 99.12 -15.43 67.73 -10.06 34.31 C-9.9 33.32 -9.75 32.33 -9.59 31.31 C-8.57 25.28 -7.03 19.77 -5 14 C-4.57 12.32 -4.16 10.64 -3.81 8.94 C-3.54 7.64 -3.28 6.34 -3 5 C-7.9 10.2 -11.47 15.23 -14.74 21.58 C-16 24 -16 24 -18 27 C-18.66 27 -19.32 27 -20 27 C-20 27.66 -20 28.32 -20 29 C-21.63 30.7 -23.31 32.36 -25 34 C-27.75 37.01 -30.47 40.03 -33.18 43.06 C-35.97 45.96 -38.87 48.48 -42 51 C-42.4 51.34 -42.4 51.34 -44.44 53.06 C-50.81 57.88 -56.23 59.72 -64 61 C-64 60.01 -64 59.02 -64 58 C-61.69 58 -59.38 58 -57 58 C-57 57.34 -57 56.68 -57 56 C-53 54 -53 54 -50 54 C-49.67 52.68 -49.34 51.36 -49 50 C-46.68 48.97 -44.34 47.98 -42 47 C-38.91 44.29 -36.45 41.34 -33.81 38.19 C-31 35 -31 35 -29 35 C-29 33.68 -29 32.36 -29 31 C-27.38 29.61 -25.7 28.29 -24 27 C-22.32 25.01 -20.65 23.01 -19 21 C-18.34 20.67 -17.68 20.34 -17 20 C-15.64 17.69 -14.44 15.32 -13.22 12.93 C-12.82 12.3 -12.41 11.66 -12 11 C-11.34 11 -10.68 11 -10 11 C-9.67 9.68 -9.34 8.36 -9 7 C-6.56 4.38 -6.56 4.38 -4 2 C-2 0 -2 0 0 0 Z " fill="#DFEBED" transform="translate(444,704)"/>
<path d="M0 0 C1.82 2.55 1.82 2.55 3.84 6.1 C4.57 7.37 5.31 8.65 6.06 9.97 C6.83 11.32 7.59 12.67 8.38 14.06 C9.88 16.7 11.39 19.34 12.9 21.97 C13.57 23.15 14.23 24.33 14.92 25.54 C17.1 29.17 19.52 32.57 22 36 C23.18 38.08 24.31 40.18 25.38 42.31 C25.64 42.83 25.64 42.83 26.96 45.43 C28 48 28 48 27 50 C24.01 50.69 21.01 51.36 18 52 C16.68 52.66 15.36 53.32 14 54 C8.85 51.23 7.83 47.32 6 42 C5.34 41.67 4.68 41.34 4 41 C3.67 39.68 3.34 38.36 3 37 C2.01 35.68 1.02 34.36 0 33 C-1.55 30.21 -3.03 27.39 -4.5 24.56 C-6 22 -6 22 -9 19 C-9.14 18.15 -9.29 17.31 -9.44 16.44 C-10 14 -10 14 -14 12 C-14.66 10.68 -15.32 9.36 -16 8 C-14.6 7.42 -13.2 6.84 -11.75 6.25 C-7.44 4.36 -4.48 0 0 0 Z " fill="#B7F8F5" transform="translate(528,194)"/>
<path d="M0 0 C4 2 4 2 7 5 C8.09 5.62 9.19 6.24 10.31 6.88 C11.2 7.58 12.09 8.28 13 9 C11.98 12.72 10.01 15.69 7.88 18.88 C5.04 23.24 2.53 27.69 0.12 32.31 C-2.69 37.62 -5.58 42.86 -8.69 48 C-9.39 49.18 -10.1 50.35 -10.82 51.56 C-13 54 -13 54 -15.47 53.93 C-16.31 53.62 -17.14 53.31 -18 53 C-19.57 52.73 -21.13 52.46 -22.75 52.19 C-24.15 51.8 -25.56 51.4 -27 51 C-28.3 45.79 -26.97 44.58 -24.25 40.06 C-23.53 38.86 -22.82 37.65 -22.08 36.41 C-21.39 35.28 -20.71 34.16 -20 33 C-19.52 32.19 -19.03 31.37 -18.53 30.53 C-16.48 27.14 -14.36 23.79 -12.25 20.44 C-8.02 13.71 -3.95 6.9 0 0 Z " fill="#B5F8F5" transform="translate(496,193)"/>
<path d="M0 0 C2.35 -0.09 4.7 -0.18 7.05 -0.27 C7.61 -0.31 7.61 -0.31 10.44 -0.52 C13.43 -0.59 15.69 -0.65 18.49 0.41 C20.22 3.67 20.31 6.79 20.49 10.41 C20.8 12.09 21.13 13.75 21.49 15.41 C14.45 17.14 7.07 16.8 -0.15 16.97 C-2.84 17.04 -5.53 17.12 -8.21 17.2 C-30.01 17.78 -30.01 17.78 -38.51 16.41 C-40.03 13.37 -38.72 11.5 -37.63 8.35 C-37.26 7.27 -36.9 6.18 -36.52 5.07 C-35.51 2.41 -35.51 2.41 -34.51 1.41 C-32.82 1.25 -31.12 1.16 -29.42 1.1 C-28.34 1.05 -27.25 1.01 -26.14 0.97 C-21.21 0.81 -16.29 0.67 -11.36 0.54 C-7.57 0.42 -3.79 0.21 0 0 Z " fill="#BAF7F5" transform="translate(520.5078125,252.5859375)"/>
<path d="M0 0 C1.68 0.97 3.35 1.97 5 3 C6.82 3.7 8.66 4.37 10.5 5 C24.87 10.41 38.5 18.13 51 27 C53 28.34 55 29.67 57 31 C55 32 55 32 53 31 C56.71 35.25 60.43 39.48 64.19 43.69 C64.85 44.44 65.52 45.19 66.2 45.96 C67.62 47.57 69.06 49.16 70.5 50.75 C72 53 72 53 72 58 C62.84 54.95 57.6 48.47 52 41 C50.95 40.65 49.9 40.3 48.81 39.94 C47.88 39.63 46.96 39.32 46 39 C46 38.01 46 37.02 46 36 C43.69 35.44 43.69 35.44 41 35 C38 33 38 33 37 29 C34.69 27.62 32.35 26.3 30 25 C29.2 24.18 28.39 23.35 27.56 22.5 C24.38 19.39 21.01 17.91 17 16 C14.98 14.7 12.97 13.38 11 12 C10.67 12.66 10.34 13.32 10 14 C8.01 12.47 6.03 10.94 4.04 9.41 C2 8 2 8 -1 7 C-1 6.34 -1 5.68 -1 5 C-3.19 4.44 -3.19 4.44 -6 4 C-8.81 3.56 -8.81 3.56 -11 3 C-11 2.34 -11 1.68 -11 1 C-9.56 1.02 -8.11 1.04 -6.62 1.06 C-2 1 -2 1 0 0 Z " fill="#E1EAEC" transform="translate(365,257)"/>
<path d="M0 0 C0.33 0.16 0.33 0.16 2 1 C-2.09 5.25 -6.16 9.19 -10.81 12.81 C-16.64 17.48 -21.9 22.67 -27.19 27.94 C-28.05 28.79 -28.91 29.65 -29.8 30.52 C-30.6 31.33 -31.4 32.14 -32.23 32.96 C-32.59 33.33 -32.59 33.33 -34.43 35.17 C-36 37 -36 37 -36 39 C-35.67 39.16 -35.67 39.16 -34 40 C-35.28 44.99 -37.09 47.66 -41 51 C-41.5 51.16 -41.5 51.16 -44 52 C-44.33 52.99 -44.66 53.98 -45 55 C-45.66 55 -46.32 55 -47 55 C-47.66 56.32 -48.32 57.64 -49 59 C-50.31 60.58 -51.67 62.12 -53.06 63.62 C-56.9 67.81 -56.9 67.81 -58 70 C-58.66 70 -59.32 70 -60 70 C-60.12 70.93 -60.25 71.86 -60.38 72.81 C-61 76 -61 76 -63 79 C-63.66 79 -64.32 79 -65 79 C-65 80.32 -65 81.64 -65 83 C-69 82 -69 82 -71 80 C-71.33 80.33 -71.33 80.33 -73 82 C-72.31 66.45 -58.47 55.4 -48.18 45.2 C-46 43 -46 43 -43.69 40.12 C-41 37 -38.17 34.45 -35.04 31.79 C-33.12 30.1 -31.3 28.3 -29.5 26.5 C-26.42 23.42 -23.26 20.58 -19.96 17.74 C-18.13 16.11 -16.4 14.37 -14.69 12.62 C-10.17 8.04 -5.3 3.66 0 0 Z " fill="#E0EAED" transform="translate(432,658)"/>
<path d="M0 0 C0.99 -0.06 1.98 -0.12 3 -0.19 C7.26 0.08 10.31 1.96 14 4 C14.33 3.01 14.66 2.02 15 1 C16.32 1.33 17.64 1.66 19 2 C15.5 7.88 15.5 7.88 11 9 C11 10.32 11 11.64 11 13 C12.32 13.66 13.64 14.32 15 15 C14.34 15.33 14.34 15.33 11 17 C10.02 20.04 10.02 20.04 9.38 23.62 C8.98 25.76 8.54 27.89 8 30 C7.34 30 6.68 30 6 30 C6.09 28.84 6.19 27.68 6.28 26.49 C6.94 12.49 6.94 12.49 2.44 9 C-4.75 5.76 -4.75 5.76 -9 6 C-11.69 8.25 -11.69 8.25 -14 11 C-15.32 11.99 -16.64 12.98 -18 14 C-18.55 16.32 -18.55 16.32 -18.61 19.06 C-18.64 20.07 -18.67 21.09 -18.71 22.14 C-18.71 22.68 -18.71 22.68 -18.75 25.44 C-18.78 26.56 -18.81 27.68 -18.84 28.83 C-19.04 37.34 -19.02 45.85 -18.97 54.36 C-19.02 61.26 -19.46 68.12 -20 75 C-20.66 75 -21.32 75 -22 75 C-21.99 73.35 -21.98 71.7 -21.97 70 C-21.93 63.86 -21.91 57.71 -21.89 51.57 C-21.88 48.91 -21.87 46.26 -21.85 43.6 C-21.82 39.78 -21.81 35.95 -21.8 32.13 C-21.79 30.95 -21.78 29.77 -21.77 28.56 C-21.77 22.07 -22.06 16.22 -24 10 C-27.12 8.06 -27.12 8.06 -30 7 C-30 6.34 -30 5.68 -30 5 C-29.34 5 -28.68 5 -28 5 C-28 4.34 -28 3.68 -28 3 C-27.11 3.23 -26.23 3.45 -25.31 3.69 C-21.26 4.07 -20.38 3.12 -17 1 C-10.86 -0.78 -6.27 -1.03 0 0 Z " fill="#D3E8EB" transform="translate(520,803)"/>
<path d="M0 0 C3.95 4.51 3.96 6.65 3.06 12.5 C1.12 17.35 -0.91 18.84 -5.81 20.06 C-10.4 20.73 -13.1 20.31 -16.94 17.5 C-20.39 12.9 -21.71 9.5 -20.25 3.81 C-15.4 -4.74 -7.93 -5.04 0 0 Z " fill="#B4F8F5" transform="translate(520.9375,175.5)"/>
<path d="M0 0 C3.7 3.17 4.9 6.15 5 11 C3.36 16.09 2.37 17.72 -2 21 C-8.79 22.79 -13.21 21.31 -18.56 16.88 C-21.13 11.74 -18.94 7.01 -16.62 2.06 C-12.08 -3.71 -6.13 -1.97 0 0 Z " fill="#B5F8F5" transform="translate(564,249)"/>
<path d="M0 0 C4.41 2.59 6.04 5 7 10 C6.84 15.33 6.64 18.95 2 22 C-4.13 23.8 -8.3 22.42 -14 20 C-14.33 19.01 -14.66 18.02 -15 17 C-15.66 17 -16.32 17 -17 17 C-15.62 4.07 -15.62 4.07 -10 0 C-6.6 -1.7 -3.64 -0.71 0 0 Z " fill="#B5F8F5" transform="translate(472,248)"/>
<path d="M0 0 C1.36 4.08 0.31 6.47 -0.75 10.62 C-5 28.05 -7.28 45.06 -7 63 C-1.75 62.6 0.54 61.94 4 58 C5.32 57.34 6.64 56.68 8 56 C9.95 52.1 10.18 50.77 10.25 46.62 C10.67 40.17 12.78 35.13 15.53 29.32 C17.03 25.93 18.03 22.58 19 19 C19.98 16.33 20.97 13.66 22 11 C22.66 11.33 23.32 11.66 24 12 C23.55 13.44 23.09 14.89 22.62 16.38 C21.07 21.54 20.02 26.7 19 32 C18.67 32.99 18.34 33.98 18 35 C17.34 35 16.68 35 16 35 C14.47 40.32 13.91 45.22 13.69 50.75 C13.3 56.24 12.79 58.81 8 62 C5.75 63.32 3.5 64.59 1.18 65.79 C-1 67 -1 67 -5 70 C-5.66 70 -6.32 70 -7 70 C-8.68 65.99 -9 63.44 -9 59 C-9.66 59 -10.32 59 -11 59 C-10.84 58.31 -10.69 57.61 -10.53 56.9 C-9.96 53.79 -9.74 50.79 -9.57 47.63 C-9.5 46.42 -9.42 45.2 -9.35 43.95 C-9.2 41.41 -9.06 38.87 -8.93 36.32 C-8.52 29.86 -7.9 24.88 -5 19 C-4.41 16.45 -3.89 13.89 -3.44 11.31 C-2.67 6.99 -1.98 3.96 0 0 Z " fill="#D4E1E6" transform="translate(377,416)"/>
<path d="M0 0 C6.37 4.25 5.39 12.88 5.75 19.89 C6 23 6 23 7 26 C7.2 27.96 7.36 29.91 7.5 31.88 C7.71 34.89 7.94 37.74 8.59 40.7 C9 43 9 43 8 46 C9.32 46.66 10.64 47.32 12 48 C11.67 48.99 11.34 49.98 11 51 C10.34 51 9.68 51 9 51 C9 50.34 9 49.68 9 49 C8.34 49 7.68 49 7 49 C6.99 49.84 6.97 50.69 6.96 51.56 C6.36 67.53 3.53 83.24 1 99 C0.34 99 -0.32 99 -1 99 C-0.89 94.69 -0.76 90.37 -0.62 86.06 C-0.59 84.83 -0.56 83.6 -0.53 82.33 C-0.51 81.75 -0.51 81.75 -0.41 78.79 C-0.38 77.7 -0.35 76.62 -0.32 75.5 C-0.21 74.68 -0.11 73.85 0 73 C0.33 72.84 0.33 72.84 2 72 C1.74 69.66 1.41 67.32 1 65 C1 64.34 1 63.68 1 63 C0.67 62.34 0.34 61.68 0 61 C0.66 61 1.32 61 2 61 C2.17 59.08 2.34 57.17 2.5 55.25 C2.59 54.18 2.69 53.12 2.78 52.02 C3.29 42.61 2.92 33.37 2.06 24 C1.89 22 1.71 20 1.54 18 C1.45 17.03 1.36 16.05 1.27 15.05 C0.83 10.03 0.41 5.02 0 0 Z " fill="#E1EDEF" transform="translate(590,729)"/>
<path d="M0 0 C1.34 -0.05 2.69 -0.1 4.07 -0.15 C13.91 -0.25 13.91 -0.25 16.97 3.97 C17.5 7.56 17.5 7.56 16.5 9.56 C13.92 9.74 11.33 9.78 8.75 9.76 C7.17 9.75 5.59 9.74 3.97 9.74 C2.29 9.72 0.62 9.7 -1.06 9.69 C-2.74 9.68 -4.43 9.67 -6.11 9.66 C-10.24 9.64 -14.37 9.6 -18.5 9.56 C-17.43 -1.96 -9.74 0.11 0 0 Z " fill="#BFF7F5" transform="translate(514.5,702.4375)"/>
<path d="M0 0 C4.2 2.44 5.35 4.29 6 9 C6.66 9 7.32 9 8 9 C8 9.99 8 10.98 8 12 C8.66 12 9.32 12 10 12 C11.08 13.96 12.06 15.97 13 18 C13.89 19.79 14.79 21.59 15.69 23.38 C16.46 24.92 17.23 26.46 18 28 C17.22 28.45 16.43 28.91 15.62 29.38 C13 31 13 31 11 33 C8 29 8 29 8 26 C7.34 26 6.68 26 6 26 C4.61 24.01 3.31 21.96 2.06 19.88 C1.37 18.74 0.68 17.6 -0.03 16.43 C-5.82 6.36 -5.82 6.36 -4 2 C-2.68 1.34 -1.36 0.68 0 0 Z " fill="#BFF6F4" transform="translate(522,668)"/>
<path d="M0 0 C0.33 1.32 0.66 2.64 1 4 C1.99 4.33 2.98 4.66 4 5 C3 9 3 9 2 12 C1.34 12 0.68 12 0 12 C-0.25 12.78 -0.5 13.57 -0.75 14.38 C-3 20.9 -6.88 26.51 -11 32 C-14.19 31.44 -14.19 31.44 -17 30 C-17 21.63 -10.42 12.88 -6 6 C-5.3 4.35 -4.61 2.69 -4 1 C-3 0 -3 0 0 0 Z " fill="#BFF6F4" transform="translate(507,667)"/>
<path d="M0 0 C0.66 0.33 1.32 0.66 2 1 C-2.09 5.25 -6.16 9.19 -10.81 12.81 C-16.64 17.48 -21.9 22.67 -27.19 27.94 C-28.05 28.79 -28.91 29.65 -29.8 30.52 C-30.6 31.33 -31.4 32.14 -32.23 32.96 C-32.96 33.69 -33.68 34.42 -34.43 35.17 C-36 37 -36 37 -36 39 C-35.34 39.33 -34.68 39.66 -34 40 C-35.28 44.99 -37.09 47.66 -41 51 C-41.5 51.16 -41.5 51.16 -44 52 C-44.33 52.99 -44.66 53.98 -45 55 C-45.66 55 -46.32 55 -47 55 C-47.66 56.32 -48.32 57.64 -49 59 C-49.33 58.34 -49.66 57.68 -50 57 C-48.19 53.88 -48.19 53.88 -46 51 C-45.34 51 -44.68 51 -44 51 C-44 50.01 -44 49.02 -44 48 C-45.11 48.99 -46.23 49.98 -47.38 51 C-51 54 -51 54 -53 54 C-53.66 55.32 -54.32 56.64 -55 58 C-55.66 58 -56.32 58 -57 58 C-53.97 44.52 -37.04 33.06 -27.06 24.62 C-23.61 21.66 -20.45 18.51 -17.3 15.23 C-11.95 9.74 -6.33 4.34 0 0 Z " fill="#D9EAED" transform="translate(432,658)"/>
<path d="M0 0 C0.33 0 0.66 0 1 0 C0.45 5.42 -0.55 10.27 -2.25 15.44 C-4.1 21.17 -5.88 26.91 -7.56 32.69 C-13.22 52.01 -13.22 52.01 -15.5 57.81 C-18.57 66.38 -20.67 75.3 -21.94 84.31 C-23 89 -23 89 -25.31 91.38 C-28 92 -28 92 -30.81 91.25 C-34.17 87.79 -33.33 84.61 -33 80 C-32.67 80 -32.34 80 -32 80 C-31.67 82.64 -31.34 85.28 -31 88 C-29.35 88 -27.7 88 -26 88 C-25.25 85.81 -25.25 85.81 -25 83 C-24.84 82.26 -24.68 81.53 -24.51 80.77 C-23.69 76.31 -23.61 71.8 -23.38 67.28 C-23 64 -23 64 -21 60 C-21.33 58.68 -21.66 57.36 -22 56 C-20.68 56 -19.36 56 -18 56 C-17.06 53.25 -17.06 53.25 -16 49 C-15.23 47.22 -14.43 45.45 -13.62 43.69 C-10.79 37.07 -9.43 30.32 -7.97 23.29 C-6.77 17.97 -5.03 13.05 -3 8 C-2.44 6.45 -1.89 4.91 -1.31 3.31 C-0.88 2.22 -0.45 1.13 0 0 Z " fill="#D4E2E6" transform="translate(481,648)"/>
<path d="M0 0 C0.66 0 1.32 0 2 0 C1.47 7 0.28 13.63 -1.24 20.48 C-5.59 40.6 -6.55 61.32 -3.44 81.69 C-3.02 84.88 -2.69 87.79 -3 91 C-3.5 91.16 -3.5 91.16 -6 92 C-7.57 84.23 -8.38 76.79 -8.62 68.88 C-8.66 67.86 -8.7 66.84 -8.74 65.79 C-9.29 50.5 -7.6 36.23 -5.06 21.19 C-4.9 20.23 -4.75 19.28 -4.58 18.3 C-3.5 12.02 -2.1 6.02 0 0 Z " fill="#DCE8EB" transform="translate(334,292)"/>
<path d="M0 0 C4.87 0.49 7.63 1.79 11.5 4.75 C12.45 5.47 13.4 6.2 14.38 6.94 C21.68 12.68 27.76 18.51 33.35 25.91 C35 28 35 28 38 31 C38.33 29.68 38.66 28.36 39 27 C39.66 27 40.32 27 41 27 C40.01 29.97 39.02 32.94 38 36 C37.01 35.67 36.02 35.34 35 35 C35 34.34 35 33.68 35 33 C34.34 33 33.68 33 33 33 C32.48 32.2 31.97 31.39 31.44 30.56 C26.76 23.72 20.96 18.46 14 14 C14 13.34 14 12.68 14 12 C12.68 11.34 11.36 10.68 10 10 C9.34 9.34 8.68 8.68 8 8 C6 7.32 4 6.65 2 6 C1.01 5.34 0.02 4.68 -1 4 C-0.67 2.68 -0.34 1.36 0 0 Z " fill="#C2E7E7" transform="translate(618,344)"/>
<path d="M0 0 C3.8 1.45 7.37 3.18 11 5 C12.62 5.69 14.25 6.38 15.88 7.06 C17.24 7.7 18.6 8.34 20 9 C20 9.66 20 10.32 20 11 C20.91 11.12 21.81 11.25 22.75 11.38 C26 12 26 12 30 14 C30.11 20.02 28.06 21.94 24 26 C23.19 29.81 23.19 29.81 23 33 C21.35 33 19.7 33 18 33 C15.65 34.98 13.32 36.98 11 39 C10.01 38.67 9.02 38.34 8 38 C9.23 33.07 9.83 33.32 14.25 31.44 C20.77 28.14 22.97 23.86 25 17 C25 16.34 25 15.68 25 15 C22.68 14.12 20.31 13.35 17.94 12.62 C7.36 9.22 7.36 9.22 3 6 C2.67 4.68 2.34 3.36 2 2 C1.34 2 0.68 2 0 2 C0 1.34 0 0.68 0 0 Z " fill="#D4E8EA" transform="translate(443,609)"/>
<path d="M0 0 C0.66 0 1.32 0 2 0 C1.58 3.95 0.88 7.36 -0.41 11.12 C-2.08 16.04 -3.19 20.98 -4.19 26.06 C-4.36 26.91 -4.54 27.76 -4.72 28.63 C-5.5 32.52 -6 36.15 -5.99 40.12 C-6 44.39 -6.96 47.87 -8 52 C-8.35 56.88 -8.5 61.75 -8.66 66.64 C-8.95 70.33 -9.35 72.74 -11 76 C-13.51 72.23 -12.84 70.07 -12.29 65.72 C-11.87 61.79 -11.94 57.94 -12 54 C-11.34 54 -10.68 54 -10 54 C-9.95 52.88 -9.9 51.75 -9.85 50.6 C-9.46 42.82 -8.94 35.54 -7 28 C-6.81 26.68 -6.63 25.36 -6.44 24 C-6 21 -6 21 -5 20 C-4.96 17.67 -4.96 15.33 -5 13 C-5.99 13.33 -6.98 13.66 -8 14 C-7.75 10.62 -7.75 10.62 -7 7 C-5.68 6.34 -4.36 5.68 -3 5 C-1.98 3.35 -0.97 1.68 0 0 Z " fill="#D8E7EA" transform="translate(364,398)"/>
<path d="M0 0 C0.17 0.33 0.17 0.33 1 2 C-2 5 -2 5 -4.82 6.86 C-18.34 15.96 -31.82 29.85 -40 44 C-40.66 43.34 -41.32 42.68 -42 42 C-41.34 40.68 -40.68 39.36 -40 38 C-39.34 38 -38.68 38 -38 38 C-37.32 36.01 -36.65 34 -36 32 C-27.8 17.69 -14.52 7.26 0 0 Z " fill="#C2E7E7" transform="translate(407,343)"/>
<path d="M0 0 C0.81 3.94 1 6 0 10 C0.04 10.81 0.04 10.81 0.25 14.94 C0.33 20.02 -0.99 21.77 -5 25 C-6.4 29.2 -6.1 33.31 -6.06 37.69 C-6.06 38.58 -6.05 39.47 -6.05 40.39 C-6.04 42.6 -6.02 44.8 -6 47 C-6.66 47 -7.32 47 -8 47 C-12.19 37.29 -8.92 26.91 -5.99 17.29 C-4.77 13.23 -3.86 9.16 -3 5 C-4.13 6.25 -5.25 7.5 -6.38 8.75 C-7 9.45 -7.63 10.14 -8.27 10.86 C-10 13 -10 13 -12 17 C-13.32 17.99 -14.64 18.98 -16 20 C-15.08 16.33 -14.13 14.07 -12 11 C-11.34 11 -10.68 11 -10 11 C-9.67 9.68 -9.34 8.36 -9 7 C-6.56 4.38 -6.56 4.38 -4 2 C-2 0 -2 0 0 0 Z " fill="#D0E5E8" transform="translate(444,704)"/>
<path d="M0 0 C0.99 0.33 1.98 0.66 3 1 C3 1.66 3 2.32 3 3 C3.8 3.25 4.61 3.5 5.44 3.75 C8 5 8 5 8.65 7.46 C9.09 11.94 9.14 16.38 9.13 20.87 C9.13 21.82 9.13 22.77 9.14 23.75 C9.14 25.77 9.13 27.78 9.13 29.8 C9.13 32.83 9.13 35.86 9.14 38.89 C9.14 49.97 8.88 60.95 8 72 C7.34 72 6.68 72 6 72 C6.01 70.35 6.02 68.7 6.03 67 C6.07 60.86 6.09 54.71 6.11 48.57 C6.12 45.91 6.13 43.26 6.15 40.6 C6.18 36.78 6.19 32.95 6.2 29.13 C6.21 27.95 6.22 26.77 6.23 25.56 C6.23 19.07 5.94 13.22 4 7 C0.88 5.06 0.88 5.06 -2 4 C-2 3.34 -2 2.68 -2 2 C-1.34 2 -0.68 2 0 2 C0 1.34 0 0.68 0 0 Z " fill="#CDE5E8" transform="translate(492,806)"/>
<path d="M0 0 C3 3 3 3 2.81 7.56 C2 12 2 12 0 14 C-5.29 14.49 -6.59 14.31 -11 11 C-11.66 7.52 -11.27 4.57 -11 1 C-7.45 -0.77 -3.87 -0.21 0 0 Z " fill="#BFF6F4" transform="translate(546,700)"/>
<path d="M0 0 C6.55 2.18 12.48 9.87 15.42 15.93 C17.03 19.05 18.73 21.2 21.12 23.75 C21.91 24.6 22.7 25.45 23.51 26.33 C24.33 27.21 25.15 28.09 26 29 C27.67 30.81 29.34 32.62 31 34.44 C31.37 34.84 31.37 34.84 33.25 36.87 C35 39 35 39 36 42 C37.66 42.69 39.32 43.36 41 44 C41 44.66 41 45.32 41 46 C42.32 46.33 43.64 46.66 45 47 C48 50 48 50 48 52 C35.57 45.78 26.01 36.18 18 25 C17.32 24.2 16.64 23.39 15.94 22.56 C14.18 20.24 12.87 18 11.5 15.44 C8.71 10.31 6.86 7.47 1 6 C0.25 2.94 0.25 2.94 0 0 Z " fill="#D9E9EC" transform="translate(584,707)"/>
<path d="M0 0 C0.99 0.33 1.98 0.66 3 1 C3.24 3.58 3.47 6.16 3.64 8.75 C4.84 19.58 8.33 27.69 17.12 34.38 C21.7 36.29 25.6 36.57 30.52 36.73 C30.93 36.77 30.93 36.77 33 37 C33.33 37.66 33.66 38.32 34 39 C30.06 40.97 25.3 40.45 21 40 C17.69 38.19 17.69 38.19 15 36 C14.5 35.79 14.5 35.79 12 34.75 C2.38 29.14 1.55 20.3 0.67 10.18 C0.41 6.79 0.19 3.4 0 0 Z " fill="#D3E3E7" transform="translate(526,874)"/>
<path d="M0 0 C2.91 2.91 2.35 5.02 2 9 C-1.54 12.54 -3.09 12.83 -8 13 C-12 10 -12 10 -12.5 6.56 C-11.38 -1.44 -7.2 -1.63 0 0 Z " fill="#BFF5F4" transform="translate(520,656)"/>
<path d="M0 0 C3 3 3 3 3.56 5.88 C2.75 10.36 0.79 11.64 -3 14 C-7.71 14.11 -8.03 12.96 -11 9 C-12.03 0.61 -7.61 -0.71 0 0 Z " fill="#BFF5F3" transform="translate(491,700)"/>
<path d="M0 0 C2 1 2 1 2 1 Z M0 1 C-2.31 5.63 -5.19 8.26 -8.91 11.78 C-11 14 -11 14 -13 18 C-13.66 18.33 -14.32 18.66 -15 19 C-16.38 21.64 -17.72 24.31 -19 27 C-19.66 26.01 -20.32 25.02 -21 24 C-24.17 26.22 -25.87 27.75 -27.62 31.25 C-27.85 31.7 -27.85 31.7 -29 34 C-29.99 34 -30.98 34 -32 34 C-32.33 34.66 -32.66 35.32 -33 36 C-33 30.27 -29.99 27.86 -26 24 C-24.34 22.98 -22.68 21.98 -21 21 C-19.98 19.34 -18.98 17.68 -18 16 C-16.37 14.63 -14.7 13.29 -13 12 C-10.21 9.28 -7.51 6.49 -4.81 3.69 C-2 1 -2 1 0 1 Z " fill="#D0E1E5" transform="translate(610,286)"/>
<path d="M0 0 C10.8 5.4 24.38 17.02 30 28 C29.67 29.32 29.34 30.64 29 32 C28.28 31.05 27.56 30.1 26.81 29.12 C24.06 26.07 22.71 25.34 19 24 C18.67 23.01 18.34 22.02 18 21 C17.34 20.67 16.68 20.34 16 20 C14.25 17.34 13.01 15.03 12 12 C10.68 11.34 9.36 10.68 8 10 C5.86 7.87 5.86 7.87 3.75 5.44 C3.04 4.63 2.34 3.83 1.61 3 C0 1 0 1 0 0 Z " fill="#DAEAED" transform="translate(422,289)"/>
<path d="M0 0 C-0.33 2.31 -0.66 4.62 -1 7 C-2.18 6.2 -3.35 5.39 -4.56 4.56 C-8.4 2.2 -11.38 0.83 -16 1 C-18.69 3.31 -18.69 3.31 -21 6 C-21.66 6.33 -21.66 6.33 -25 8 C-25.88 4.69 -25.88 4.69 -26 1 C-19.15 -4.9 -7.96 -2.09 0 0 Z " fill="#E6F0F2" transform="translate(527,808)"/>
<path d="M0 0 C1.32 0.99 2.64 1.98 4 3 C3.23 8.04 0.8 10.76 -3 14 C-3.99 14.33 -4.98 14.66 -6 15 C-6.33 15.99 -6.66 16.98 -7 18 C-7.66 18 -8.32 18 -9 18 C-9.66 19.32 -10.32 20.64 -11 22 C-11.33 21.34 -11.66 20.68 -12 20 C-10.19 16.88 -10.19 16.88 -8 14 C-7.34 14 -6.68 14 -6 14 C-6 13.01 -6 12.02 -6 11 C-6.95 11.83 -7.9 12.65 -8.88 13.5 C-12 16 -12 16 -14 16 C-11.81 11.62 -9.36 9.16 -5.88 5.75 C-4.78 4.67 -3.68 3.59 -2.55 2.48 C-1.71 1.66 -0.87 0.84 0 0 Z " fill="#D1E1E6" transform="translate(394,695)"/>
<path d="M0 0 C3 1 3 1 4.19 4.75 C5 9 5 9 5 14 C5.33 15.32 5.66 16.64 6 18 C5.67 19.32 5.34 20.64 5 22 C1.43 20.4 0.2 19.49 -1.31 15.81 C-2.4 9.81 -2.76 5.53 0 0 Z " fill="#DFE7EA" transform="translate(442,768)"/>
<path d="M0 0 C0.33 0.66 0.66 1.32 1 2 C0.01 2.99 -0.98 3.98 -2 5 C-4.06 9.13 -3.08 13.69 -2 18 C1.56 18.89 4.3 19.16 7.94 19.19 C8.96 19.2 9.98 19.22 11.03 19.23 C16.06 18.84 18.43 17.57 22 14 C22.66 12.68 23.32 11.36 24 10 C24.66 10 25.32 10 26 10 C25.83 15.65 22.22 17.74 18 21 C15.08 22.46 12.44 22.21 9.19 22.25 C8.58 22.26 8.58 22.26 5.48 22.33 C-0.44 21.77 -2.47 19.71 -6 15 C-6.68 8.95 -5.89 5.69 -2 1 C-1.34 0.67 -0.68 0.34 0 0 Z " fill="#C1E7E7" transform="translate(605,546)"/>
<path d="M0 0 C2.94 0.31 2.94 0.31 6 1 C6.33 1.99 6.66 2.98 7 4 C5.02 4 3.04 4 1 4 C2 6 2 6 4.5 6.88 C7 8 7 8 8 12 C6.5 14.44 6.5 14.44 4 16 C0.19 15.06 0.19 15.06 -3 13 C-2.88 10.62 -2.88 10.62 -2 8 C-2.44 5.19 -2.44 5.19 -3 3 C-2.01 2.67 -1.02 2.34 0 2 C0 1.34 0 0.68 0 0 Z " fill="#C0EEEE" transform="translate(545,716)"/>
</svg>
