<?xml version="1.0" encoding="UTF-8"?>
<!-- Generator: visioncortex VTracer 0.6.5 -->
<svg version="1.1" xmlns="http://www.w3.org/2000/svg" width="1024" height="1024">
<path d="M0 0 C1.3 0.74 2.6 1.49 3.94 2.25 C6.1 3.21 8.26 4.16 10.43 5.11 C22.84 10.74 34.85 17.34 45.94 25.25 C46.76 25.8 47.58 26.35 48.42 26.91 C60.88 35.3 76.97 46.36 81.94 61.25 C85.63 61.36 89.13 61.29 92.81 61.06 C93.81 61.02 94.81 60.97 95.84 60.93 C100.75 60.67 105.5 60.21 110.32 59.26 C134.08 54.64 159.62 56.47 183.32 60.28 C190.78 61.46 198.38 62.25 205.94 62.25 C205.97 61.25 206 60.25 206.03 59.21 C207.19 54.13 209.86 51.4 213.44 47.81 C214.07 47.16 214.71 46.5 215.37 45.82 C222.98 38.04 230.83 31.23 239.94 25.25 C241.04 24.52 242.15 23.8 243.29 23.05 C251.44 17.82 259.78 12.99 268.25 8.31 C269.24 7.76 270.23 7.2 271.25 6.63 C281.95 0.8 292.65 -2.39 304.94 -0.75 C308 1.25 308 1.25 309.94 4.25 C310.8 5.57 311.67 6.89 312.56 8.25 C312.95 8.91 312.95 8.91 314.94 12.25 C315.45 13.05 315.97 13.85 316.49 14.67 C317.98 17.33 318.71 19.61 319.4 22.57 C319.64 23.59 319.88 24.61 320.13 25.67 C320.25 26.21 320.25 26.21 320.88 28.94 C321.13 30.05 321.39 31.16 321.66 32.3 C322.43 35.62 323.18 38.93 323.94 42.25 C324.35 44.04 324.77 45.83 325.18 47.62 C328.45 61.94 329.37 75.71 329.84 90.34 C329.92 92.68 330.01 95.02 330.11 97.36 C330.34 106.88 328.78 115.94 326.94 125.25 C326.71 126.58 326.47 127.91 326.23 129.29 C323.41 143.1 316.23 155.7 306.94 166.25 C306.44 165.75 306.44 165.75 303.94 163.25 C302.62 162.92 301.3 162.59 299.94 162.25 C300.26 163.57 300.59 164.89 300.93 166.25 C303.33 176.24 305.4 186.19 306.75 196.38 C306.87 197.28 307 198.19 307.12 199.13 C308.6 211.08 307.78 222.68 306.56 234.62 C306.44 235.93 306.31 237.24 306.18 238.59 C303.76 263.02 303.76 263.02 299.94 272.25 C299.59 273.67 299.24 275.1 298.88 276.56 C297.94 280.25 297.94 280.25 295.94 283.25 C295.83 284.14 295.73 285.02 295.62 285.94 C294.69 290.44 292.48 293.44 289.94 297.25 C285.06 305.02 285.06 305.02 283.5 307.81 C281.3 311.25 278.63 314.19 275.94 317.25 C275.22 318.2 274.49 319.15 273.75 320.12 C260.56 334.78 242.3 343.21 224.27 350.29 C222.12 351.18 220.02 352.21 217.94 353.25 C216.09 353.6 214.24 353.88 212.38 354.12 C207.1 354.94 202.45 356.35 197.5 358.32 C194.94 359.25 194.94 359.25 190.25 360.06 C189.16 360.45 188.06 360.85 186.94 361.25 C185.55 367.03 187.82 371.41 190.94 376.25 C193.61 378.22 196.04 379.69 198.94 381.25 C207.14 385.9 214.71 390.48 221.55 397.01 C224.05 399.35 226.64 401.49 229.31 403.62 C240.46 412.7 250.55 422.77 260.64 432.99 C261.51 433.87 262.38 434.75 263.28 435.65 C263.67 436.05 263.67 436.05 265.63 438.04 C267.94 440.25 267.94 440.25 270.52 442.31 C274.13 445.21 276.98 448.72 279.94 452.25 C280.26 452.62 280.26 452.62 281.92 454.5 C290.18 464.21 296.62 475.29 295.94 488.25 C294.06 494.5 290.82 498.31 284.94 501.25 C266.08 502.94 253.09 493.92 241.13 479.89 C240.41 479.02 239.68 478.15 238.94 477.25 C238.07 476.25 237.2 475.26 236.3 474.23 C228.86 465.59 228.86 465.59 226.62 460.81 C224.85 457.06 223.21 454.79 219.94 452.25 C218.62 452.58 217.3 452.91 215.94 453.25 C216.78 459.16 217.65 464.02 220.44 469.31 C223.63 475.77 223.99 482.4 224.58 489.5 C224.94 493.25 224.94 493.25 225.94 495.25 C226.31 498.4 226.64 501.53 226.94 504.69 C227.8 513.85 227.8 513.85 228.94 517.25 C227.62 517.25 226.3 517.25 224.94 517.25 C224.96 518.53 224.98 519.8 225 521.12 C225 526.23 224.51 531.25 223.88 536.31 C223.75 537.34 223.62 538.37 223.49 539.44 C220.25 565.06 216.51 590.66 212.19 616.12 C212 617.24 211.82 618.35 211.62 619.5 C209.17 633.55 205.87 643 192.44 649.81 C181.41 653.34 174.2 650.84 164.94 644.25 C156.48 634.63 157.59 619.72 157.31 607.56 C157.27 606.11 157.23 604.65 157.19 603.16 C156.99 595.31 156.93 587.49 157.05 579.65 C157.07 578.11 157.09 576.56 157.12 574.97 C157.16 572 157.23 569.03 157.33 566.05 C157.35 564.71 157.37 563.37 157.39 561.98 C157.42 560.8 157.46 559.62 157.49 558.4 C156.58 553.2 153.15 551.06 148.94 548.25 C141.52 547.36 138.02 548.08 132.43 553.04 C128.73 558.52 129.76 566.71 129.69 573.13 C129.66 575.29 129.63 577.45 129.59 579.61 C129.54 582.97 129.5 586.33 129.46 589.69 C129.32 601.1 129.1 612.49 128.15 623.87 C128.02 625.49 127.88 627.11 127.75 628.78 C126.45 635.94 123.55 641.2 118.31 646.19 C117.54 646.94 116.76 647.69 115.96 648.46 C110.69 653.11 103.12 651.63 96.62 650.5 C87.03 647.25 81.52 640.54 77.94 631.25 C73.32 615 71.41 597.93 68.94 581.25 C68.71 579.75 68.49 578.26 68.26 576.72 C55.51 491.11 55.51 491.11 68.94 464.25 C69.54 461.51 70.07 458.76 70.56 456 C70.82 454.55 71.08 453.1 71.35 451.61 C71.54 450.5 71.74 449.39 71.94 448.25 C64.83 450.64 61.75 456.61 58.38 462.94 C56.11 466.94 54.25 469.16 50.94 472.25 C49.42 473.88 47.93 475.53 46.44 477.19 C45.66 478.06 44.87 478.93 44.07 479.82 C42.45 481.67 40.89 483.57 39.38 485.5 C30.49 495.52 17.58 503.72 3.94 502.25 C-2.66 499.7 -6.34 496.96 -9.31 490.56 C-12.27 477.51 -7.65 467.87 0.94 458.25 C2.84 456.28 4.77 454.35 6.75 452.46 C9.3 449.88 11.64 447.14 14.02 444.4 C17.18 440.86 20.52 437.53 23.88 434.19 C24.54 433.52 25.2 432.85 25.89 432.16 C29.83 428.22 33.9 424.5 38.12 420.86 C40.57 418.69 42.81 416.36 45.06 414 C51.22 407.78 58 402.56 64.94 397.25 C66.69 395.84 68.44 394.42 70.19 393 C76.38 388.04 82.56 383.34 89.75 379.94 C94.95 376.6 97.12 373.1 98.94 367.25 C98.94 365.6 98.94 363.95 98.94 362.25 C95.5 360.62 95.5 360.62 90.94 359.25 C82.29 356.48 82.29 356.48 78.94 354.25 C76.47 353.76 73.99 353.33 71.5 352.94 C65.05 351.79 59.47 350.13 53.53 347.43 C50.94 346.25 50.94 346.25 47 344.94 C31.13 338.35 18.19 326.55 6.12 314.62 C5.47 313.98 4.81 313.33 4.13 312.67 C-0.29 308.26 -3.23 304.52 -5.38 298.69 C-6.77 295.01 -8.32 291.73 -10.12 288.25 C-12.49 283.63 -13.97 279.34 -15.06 274.25 C-15.72 272.93 -16.38 271.61 -17.06 270.25 C-17.82 266.85 -18.5 263.48 -19.12 260.06 C-19.3 259.15 -19.47 258.25 -19.65 257.31 C-21.91 245.21 -22.3 233.28 -22.31 221 C-22.31 220.11 -22.32 219.21 -22.32 218.29 C-22.33 206.5 -21.92 195.04 -19.82 183.41 C-17.4 170.09 -17.4 170.09 -20.12 166.62 C-21.09 165.84 -22.06 165.06 -23.06 164.25 C-47.66 135.37 -46.6 89.4 -40.06 54.25 C-39.8 52.74 -39.53 51.24 -39.25 49.68 C-37.56 41.13 -35.11 32.96 -32.19 24.75 C-31.87 23.85 -31.56 22.96 -31.23 22.04 C-25.98 7.87 -17.26 -7.44 0 0 Z " fill="#C4D7DE" transform="translate(370.0625,260.75)"/>
<path d="M0 0 C11.56 9.55 13.41 19.28 12.38 33.49 C11.77 38.22 10.5 41.4 7.88 45.38 C7.43 46.07 6.98 46.77 6.52 47.48 C1.51 54.83 -3.93 57.88 -12.64 58.41 C-19.59 58.32 -24.38 56.44 -29.12 51.38 C-36.57 39.22 -39.06 25.33 -33.46 11.86 C-30.47 6.3 -26.83 2.23 -21.12 -0.62 C-16.88 -0.25 -16.88 -0.25 -13.12 0.38 C-13.12 -0.29 -13.12 -0.94 -13.12 -1.62 C-8.82 -3.78 -4.04 -2.1 0 0 Z " fill="#030404" transform="translate(604.125,480.625)"/>
<path d="M0 0 C9.2 9.79 10.33 21.16 8.94 34.12 C7.11 42.6 2.14 49 -4.75 54.12 C-11.8 56.25 -19.92 56.56 -26.06 52.12 C-35.23 43.9 -40.1 34.78 -39.06 22.12 C-37.75 19.69 -37.75 19.69 -36.06 17.12 C-34.45 12.69 -33.12 8.45 -32.25 3.81 C-27.83 -9.9 -9.12 -5.59 0 0 Z " fill="#060707" transform="translate(449.0625,483.875)"/>
<path d="M0 0 C11.56 9.55 13.41 19.28 12.38 33.49 C11.77 38.22 10.5 41.4 7.88 45.38 C7.43 46.07 6.98 46.77 6.52 47.48 C1.51 54.83 -3.93 57.88 -12.64 58.41 C-19.59 58.32 -24.38 56.44 -29.12 51.38 C-32.53 45.94 -34.7 40.85 -35.12 34.38 C-34.79 34.32 -34.79 34.32 -33.12 34.06 C-30.12 33.38 -30.12 33.38 -26.44 31.81 C-17.57 28.86 -12.33 30.09 -4.12 34.38 C0.17 35.56 4.51 36.5 8.88 37.38 C11.22 23.32 11.22 23.32 8.88 17.38 C7.22 16.98 5.55 16.65 3.88 16.38 C0.4 11.74 0.37 9.02 -0.12 3.38 C-2.19 1.31 -5.45 2.22 -8.12 2.38 C-11.44 3.09 -14.72 3.9 -18.01 4.71 C-21.45 5.44 -24.62 5.62 -28.12 5.38 C-22.96 -0.38 -22.96 -0.38 -18.12 -0.62 C-15.31 -0.19 -15.31 -0.19 -13.12 0.38 C-13.12 -0.29 -13.12 -0.94 -13.12 -1.62 C-8.82 -3.78 -4.04 -2.1 0 0 Z " fill="#5D6A70" transform="translate(604.125,480.625)"/>
<path d="M0 0 C0.82 0.8 1.65 1.61 2.5 2.44 C2.17 3.1 1.84 3.76 1.5 4.44 C0.51 3.45 -0.48 2.46 -1.5 1.44 C-4.49 1.02 -7.49 0.7 -10.5 0.44 C-12.23 0.1 -13.96 -0.25 -15.69 -0.62 C-19.5 -1.37 -22.66 -1.95 -26.5 -1.56 C-30.09 2.02 -29.84 7.65 -30.62 12.52 C-31.45 16.21 -32.49 18.32 -34.5 21.44 C-35.24 24.42 -35.91 27.42 -36.5 30.44 C-27.33 29.81 -27.33 29.81 -23 27.88 C-14.59 24.42 -6.35 26.49 1.5 30.44 C4.69 33.19 4.69 33.19 6.5 35.44 C6.67 35.11 6.67 35.11 7.5 33.44 C7.1 41.29 1.94 48.2 -4.5 52.44 C-10.64 55.51 -17.28 55.47 -23.81 53.38 C-33.8 46.17 -38.89 37.62 -39.81 25.25 C-39.48 21.17 -38.7 19.78 -36.5 16.44 C-34.89 12 -33.56 7.77 -32.69 3.12 C-28.22 -10.75 -8.81 -6.45 0 0 Z " fill="#5D6A70" transform="translate(449.5,484.5625)"/>
<path d="M0 0 C1.44 0.03 2.89 0.06 4.38 0.08 C5.03 0.09 5.03 0.09 8.33 0.13 C11.41 1.05 11.41 1.05 12.79 4.36 C12.99 5.57 13.2 6.79 13.41 8.05 C13.58 8.71 13.58 8.71 14.41 12.05 C10.69 15.76 0.24 14.17 -4.77 14.14 C-5.83 14.14 -6.88 14.14 -7.97 14.14 C-11.32 14.13 -14.68 14.12 -18.03 14.11 C-20.31 14.1 -22.59 14.1 -24.87 14.09 C-30.44 14.08 -36.02 14.07 -41.59 14.05 C-40.22 3.68 -40.22 3.68 -37.59 1.05 C-32.41 0.65 -27.22 0.57 -22.03 0.42 C-21.31 0.4 -21.31 0.4 -17.68 0.26 C-11.78 0.08 -5.89 0.06 0 0 Z " fill="#BAF7F4" transform="translate(525.58935546875,253.9541015625)"/>
<path d="M0 0 C3.65 1.22 3.87 2.03 5.67 5.3 C5.92 5.75 5.92 5.75 7.18 8 C7.69 8.95 8.21 9.9 8.75 10.88 C9.83 12.81 10.91 14.74 12 16.68 C12.52 17.6 13.03 18.53 13.57 19.49 C15.71 23.25 18.04 26.87 20.39 30.5 C22.32 33.49 24.17 36.51 26 39.56 C26.6 40.55 27.2 41.55 27.81 42.57 C29 45 29 45 28 47 C25.35 47.73 22.68 48.39 20 49 C19.5 49.16 19.5 49.16 17 50 C12.48 46.61 12.07 45.1 10 40 C8.07 36.29 6.03 32.65 4 29 C3.55 28.16 3.1 27.33 2.64 26.47 C0.39 22.31 -1.96 18.61 -5 15 C-10 8.3 -10 8.3 -10 6 C-7.67 4.99 -5.34 3.99 -3 3 C-2.01 2.01 -1.02 1.02 0 0 Z " fill="#BAF6F3" transform="translate(525,196)"/>
<path d="M0 0 C2.01 1.65 4.01 3.32 6 5 C6.87 5.64 7.73 6.28 8.62 6.94 C8.85 7.28 8.85 7.28 10 9 C8.74 11.05 7.39 13.04 6 15 C4.71 17.2 3.44 19.41 2.19 21.62 C1.49 22.85 0.8 24.07 0.08 25.33 C-0.61 26.54 -1.29 27.75 -2 29 C-3.76 32.09 -5.54 35.17 -7.37 38.21 C-9 41 -9 41 -10.35 43.82 C-11.69 46.38 -11.69 46.38 -15 50 C-19.25 50.15 -22.96 49.26 -27 48 C-26.19 42.8 -23.82 39.43 -21 35 C-20.53 33.84 -20.05 32.69 -19.56 31.5 C-18.02 28.04 -16.08 25.41 -13.75 22.44 C-10.78 18.3 -8.4 13.82 -5.93 9.37 C-4.08 6.14 -2.1 3.07 0 0 Z " fill="#BAF7F4" transform="translate(497,195)"/>
<path d="M0 0 C3.88 1.91 6.37 3.73 8.31 7.62 C8.76 12.22 8.91 14.73 6.31 18.62 C1.09 22.11 -2.99 21.17 -8.75 19.31 C-12.15 16.2 -12.19 15.66 -12.06 11.25 C-10.97 4.44 -7.49 -0.76 0 0 Z " fill="#BAF7F4" transform="translate(468.6875,248.375)"/>
<path d="M0 0 C1.23 3.43 1.09 5.17 -0.06 8.62 C-4.26 13.47 -6.64 15.13 -13.06 14.62 C-17.21 12.74 -17.95 11.85 -20.06 7.62 C-20.85 1.53 -19.53 -1.2 -15.06 -5.38 C-9.47 -8.1 -3.74 -4.31 0 0 Z " fill="#BAF7F4" transform="translate(522.0625,179.375)"/>
<path d="M0 0 C4.05 1.84 5.23 3.3 8 7 C8.98 12.63 6.86 15.05 3 19 C-0.2 20.6 -2.45 20.41 -6 20 C-10 17.44 -10 17.44 -13 14 C-13.08 9.64 -11.99 5.88 -10 2 C-6.27 -0.48 -4.41 -0.38 0 0 Z " fill="#BAF7F4" transform="translate(559,249)"/>
<path d="M0 0 C1.45 -0.06 2.91 -0.12 4.4 -0.18 C8.27 -0.22 11.73 -0.23 15.5 0.62 C17.53 4.6 17.53 4.6 17.5 8.62 C15.5 10.63 11.36 9.73 8.75 9.72 C7.17 9.72 5.59 9.72 3.97 9.71 C2.29 9.7 0.62 9.7 -1.06 9.69 C-2.74 9.68 -4.43 9.68 -6.11 9.67 C-10.24 9.66 -14.37 9.65 -18.5 9.62 C-17.19 -2.19 -10.35 0.14 0 0 Z " fill="#BAF7F4" transform="translate(514.5,702.375)"/>
<path d="M0 0 C8.4 6.72 13.49 18.39 18 28 C12.25 32 12.25 32 10 32 C8.7 30.13 8.7 30.13 7.25 27.56 C5.24 24.09 3.17 20.73 0.88 17.44 C-2.03 13.16 -4.03 8.77 -6 4 C-3.31 1.69 -3.31 1.69 0 0 Z " fill="#BAF7F4" transform="translate(522,668)"/>
<path d="M0 0 C4.75 1.88 4.75 1.88 7 3 C6.53 9.99 1.49 16.16 -2 22 C-2.53 22.98 -3.07 23.97 -3.62 24.98 C-5.06 27.5 -5.06 27.5 -8 31 C-11.88 30.56 -11.88 30.56 -15 29 C-14.41 24.46 -12.62 21.23 -10.31 17.31 C-9.95 16.7 -9.95 16.7 -8.14 13.61 C-7.44 12.42 -6.73 11.23 -6 10 C-5.39 8.96 -4.77 7.93 -4.14 6.86 C-2.77 4.57 -1.38 2.28 0 0 Z " fill="#BAF7F4" transform="translate(504,668)"/>
<path d="M0 0 C3.48 4.64 3.47 5.6 2 11 C-2.14 14.1 -3.1 14.73 -8 14 C-11.47 9.37 -11.45 7.61 -11 2 C-7.72 -1.28 -4.41 -0.36 0 0 Z " fill="#BAF7F4" transform="translate(546,700)"/>
<path d="M0 0 C3.16 3.16 2.52 5.73 2 10 C-0.69 12.62 -0.69 12.62 -4 14 C-7.26 13.26 -8.65 12.35 -11 10 C-11.43 6.12 -11.53 3.85 -9.44 0.5 C-5.97 -1.63 -3.85 -1 0 0 Z " fill="#BAF6F3" transform="translate(519,656)"/>
<path d="M0 0 C3 3 3 3 3.56 5.88 C2.75 10.36 0.79 11.64 -3 14 C-5.75 14 -5.75 14 -8 13 C-10.61 9.08 -10.44 6.63 -10 2 C-5.99 -0 -4.34 -0.46 0 0 Z " fill="#BAF7F4" transform="translate(491,700)"/>
<path d="M0 0 C1.32 0.99 2.64 1.98 4 3 C9.95 3.5 12.13 3.65 17 0 C20.37 0.19 22.81 1.35 25.94 2.69 C31.64 4.53 34.18 3.21 39 0 C39 4 39 4 37.06 5.75 C32.89 7.45 29.46 7.32 25 7 C24.01 6.34 23.02 5.68 22 5 C17.66 4.63 16.02 4.99 12 7 C6.3 7.54 2.92 7.43 -1 3 C-0.67 2.01 -0.34 1.02 0 0 Z " fill="#5D6A70" transform="translate(493,551)"/>
</svg>
