<?xml version="1.0" encoding="UTF-8"?>
<!-- Generator: visioncortex VTracer 0.6.5 -->
<svg version="1.1" xmlns="http://www.w3.org/2000/svg" width="1024" height="1024">
<path d="M0 0 C1.32 -0.33 2.64 -0.66 4 -1 C4.99 -0.01 5.98 0.98 7 2 C7.99 2 8.98 2 10 2 C10 2.66 10 3.32 10 4 C10.8 4.07 11.6 4.15 12.42 4.23 C17.09 5.23 21.09 7.23 25.31 9.38 C26.19 9.82 27.06 10.26 27.97 10.71 C36.72 15.22 44.88 20.46 53 26 C53.93 26.61 54.86 27.23 55.82 27.86 C68.77 36.58 85.84 48.52 91 64 C91.66 64.33 92.32 64.66 93 65 C93.33 64.34 93.66 63.68 94 63 C98.43 62.41 102.82 62.08 107.27 61.79 C113.42 61.37 119.04 60.66 125 59 C125.99 59 126.98 59 128 59 C130.14 58.88 132.27 58.77 134.41 58.64 C142.42 58.2 150.42 57.88 158.44 57.81 C159.96 57.8 161.49 57.78 163.06 57.77 C166.67 57.98 168.74 58.64 172 60 C173.32 59.67 174.64 59.34 176 59 C176 59.66 176 60.32 176 61 C176.37 60.91 176.37 60.91 178.25 60.44 C181 60 181 60 185 61 C186.61 61.14 188.22 61.29 189.88 61.44 C193.84 61.8 197.28 62.53 201 64 C201.33 63.34 201.66 62.68 202 62 C202.91 62.33 203.82 62.66 204.75 63 C208 64 208 64 212 64 C211.67 62.68 211.34 61.36 211 60 C224.99 37.07 251.27 22.05 274.38 9.88 C275.3 9.39 276.22 8.9 277.17 8.4 C283.74 5 283.74 5 286 5 C286.33 4.34 286.66 3.68 287 3 C289.98 2.25 292.98 1.6 296 1 C296.83 0.79 297.65 0.59 298.5 0.38 C303.69 -0.4 310.06 -0.98 315 1 C317.06 3.69 317.06 3.69 319 7 C319.7 7.97 320.4 8.94 321.12 9.94 C323.14 13.24 324.1 16.25 325 20 C325.99 19.67 326.98 19.34 328 19 C328 19.66 328 20.32 328 21 C327.34 21 326.68 21 326 21 C326.28 21.74 326.28 21.74 327.69 25.5 C329.87 32.03 331.34 38.65 332.75 45.38 C332.97 46.42 333.2 47.47 333.42 48.54 C334.42 53.42 335.31 57.99 335 63 C335.66 63 336.32 63 337 63 C336.94 64.28 336.88 65.56 336.81 66.88 C337 71 337 71 340 73 C339.01 73 338.02 73 337 73 C337.16 74.38 337.33 75.76 337.5 77.19 C338.13 83.47 338.07 89.7 338 96 C337.97 98.23 337.95 100.46 337.94 102.69 C337.93 103.17 337.93 103.17 337.9 105.64 C338 108 338 108 339 110 C338.34 110 337.68 110 337 110 C337.08 111.49 337.16 112.97 337.25 114.5 C337.28 121.04 335.7 126.93 333.97 133.2 C333 137 333 137 332.56 140.67 C331.96 144.22 330.99 146.04 329 149 C328.42 150.07 327.84 151.13 327.24 152.23 C323.18 159.64 318.96 166.01 313 172 C310.28 168.38 309.58 167.19 309 163 C309 166 309.44 168.48 310.06 171.41 C310.28 172.48 310.5 173.56 310.73 174.66 C311.2 176.9 311.66 179.14 312.13 181.38 C314.1 190.96 315.16 200.21 315 210 C315.66 210 316.32 210 317 210 C317 213.63 317 217.26 317 221 C316.34 221 315.68 221 315 221 C315.17 221.84 315.34 222.67 315.52 223.53 C317.5 237.86 314.76 256.97 310.06 270.75 C309 274 309 274 308.12 278.44 C307.02 282.93 305.47 286.12 303 290 C303.66 290 304.32 290 305 290 C304 293 304 293 301 296 C299.37 298.82 297.9 301.71 296.4 304.6 C295 307 295 307 293 308 C292.67 309.32 292.34 310.64 292 312 C289 315 289 315 287 315 C287 315.99 287 316.98 287 318 C286.34 318 285.68 318 285 318 C284.86 318.83 284.71 319.65 284.56 320.5 C284.38 321.33 284.19 322.15 284 323 C283.01 323 282.02 323 281 323 C281 323.66 281 324.32 281 325 C280.34 325 279.68 325 279 325 C278.34 326.32 277.68 327.64 277 329 C274.17 331.51 274.17 331.51 270.75 334.12 C270.19 334.56 270.19 334.56 267.36 336.76 C264.22 338.86 261.57 339.89 258 341 C257.67 341.66 257.34 342.32 257 343 C253.59 345.4 252.29 346 248 346 C247.67 346.99 247.34 347.98 247 349 C246.34 348.67 245.68 348.34 245 348 C245 348.66 245 349.32 245 350 C239.66 352.05 234.71 353.39 229 354 C229 354.66 229 355.32 229 356 C228.34 356 227.68 356 227 356 C226.67 356.66 226.34 357.32 226 358 C226 357.34 226 356.68 226 356 C225.34 356 224.68 356 224 356 C223.67 356.66 223.34 357.32 223 358 C221.64 358.14 220.28 358.29 218.88 358.44 C214.13 358.98 211.29 360.04 207 362 C203.02 363.39 199.01 364.7 195 366 C196.58 376.4 200.57 379.73 209.7 384.34 C218.31 388.68 225.24 394.64 232.49 400.96 C236.45 404.39 240.5 407.69 244.6 410.96 C247.22 413.18 249.6 415.55 252 418 C252.75 418.75 253.51 419.51 254.28 420.28 C255.01 421.01 255.75 421.75 256.5 422.5 C257.28 423.28 258.07 424.06 258.88 424.87 C260.43 426.43 261.97 427.99 263.5 429.56 C266.61 432.6 269.9 435.41 273.21 438.23 C275 440 275 440 275 442 C276.32 442.66 277.64 443.32 279 444 C279.66 445.32 280.32 446.64 281 448 C281.66 448 282.32 448 283 448 C286 451 286 451 286 453 C286.66 453.33 287.32 453.66 288 454 C288.66 454.33 289.32 454.66 290 455 C290 455.99 290 456.98 290 458 C290.66 458 291.32 458 292 458 C292 458.99 292 459.98 292 461 C292.66 461 293.32 461 294 461 C301.52 471.02 306.4 481.01 304.19 493.62 C303.8 494.74 303.4 495.85 303 497 C302.34 497 301.68 497 301 497 C300.34 498.32 299.68 499.64 299 501 C292.52 506.97 285.88 506.65 277.5 505.25 C271.37 503.55 266.52 501.52 262 497 C260.62 495.96 259.22 494.94 257.81 493.94 C254 491 254 491 254 489 C252.68 488.34 251.36 487.68 250 487 C250 486.34 250 485.68 250 485 C248.68 484.34 247.36 483.68 246 483 C244.22 481.01 244.22 481.01 242.5 478.69 C241.89 477.88 241.29 477.07 240.66 476.23 C240.11 475.49 239.57 474.76 239 474 C238.3 473.17 237.6 472.35 236.88 471.5 C233.57 467.09 230.75 462.24 229 457 C226.44 455.81 226.44 455.81 224 455 C224.22 455.9 224.43 456.81 224.66 457.74 C224.8 458.33 224.8 458.33 225.5 461.31 C225.64 461.9 225.64 461.9 226.34 464.86 C227 468 227 468 227 471 C227.66 471 228.32 471 229 471 C231.84 477.59 232.38 483.63 232.75 490.76 C233.03 494.37 233.94 497.55 235 501 C235.04 503.33 235.04 505.67 235 508 C235.3 511 235.63 514 236 517 C236.66 517 237.32 517 238 517 C238.62 519.5 238.62 519.5 239 522 C238.01 522.33 237.02 522.66 236 523 C235.34 522.01 234.68 521.02 234 520 C233.97 520.9 233.94 521.8 233.92 522.73 C233.34 535.72 231.58 548.46 229.73 561.32 C229.19 565.03 228.67 568.74 228.15 572.46 C220.21 628.56 220.21 628.56 215 640 C215.66 640.33 216.32 640.66 217 641 C216.21 641.63 215.41 642.25 214.59 642.9 C213.57 643.72 212.55 644.53 211.5 645.38 C210.99 645.78 210.99 645.78 208.41 647.84 C206 650 206 650 206 652 C204.68 652.33 203.36 652.66 202 653 C201.5 653.5 201.5 653.5 199 656 C190.13 657.98 184.09 657.67 177 652 C176.57 651.78 176.57 651.78 174.38 650.69 C160.06 640.52 162.9 619.27 163.01 603.76 C163.02 602.55 163.03 601.34 163.04 600.1 C163.05 598.88 163.06 597.66 163.07 596.4 C163.12 591.32 163.17 586.24 163.25 581.16 C163.3 577.41 163.33 573.66 163.36 569.91 C163.38 568.76 163.4 567.6 163.43 566.42 C163.43 565.88 163.43 565.88 163.44 563.2 C163.45 562.26 163.46 561.33 163.47 560.37 C162.74 556.72 160.17 555.59 157 554 C157 553.34 157 552.68 157 552 C155.68 551.67 154.36 551.34 153 551 C153 551.66 153 552.32 153 553 C151.68 552.67 150.36 552.34 149 552 C149.33 551.34 149.66 550.68 150 550 C148.68 550.33 147.36 550.66 146 551 C146.33 551.99 146.66 552.98 147 554 C145.89 554.6 144.77 555.2 143.62 555.81 C139.18 558.5 139.44 559.06 139 564 C138.86 566.4 138.75 568.8 138.68 571.2 C138.64 572.57 138.6 573.95 138.56 575.37 C138.52 576.79 138.48 578.22 138.44 579.69 C138.42 580.39 138.42 580.39 138.31 583.95 C138.13 589.86 137.98 595.76 138.02 601.67 C138.05 608.01 137.64 614.3 137.19 620.62 C137.15 621.21 137.15 621.21 136.97 624.15 C135.75 641.4 135.75 641.4 129.56 646.75 C126 650 126 650 124.06 652.88 C121 656.03 118.29 655.81 114 656 C113.01 656.06 112.02 656.12 111 656.19 C100.58 655.54 92.96 651.41 87.12 642.81 C81.61 633.31 80.47 623.25 78.95 612.5 C77.86 604.87 76.62 597.26 75.4 589.64 C71.87 567.48 68.49 545.41 67 523 C66.9 521.66 66.8 520.32 66.7 518.93 C66.33 508.79 67.83 498.96 69.31 488.94 C69.53 487.5 69.74 486.06 69.96 484.57 C71.04 477.68 72.25 471.42 75 465 C75.37 463.01 75.71 461.01 76 459 C76.65 456.33 77.31 453.66 78 451 C77.34 451 76.68 451 76 451 C75.34 452.32 74.68 453.64 74 455 C73.05 456.61 72.1 458.22 71.12 459.81 C69.26 462.89 67.48 465.96 65.75 469.12 C65.17 470.07 64.6 471.02 64 472 C63.34 472 62.68 472 62 472 C62 472.66 62 473.32 62 474 C61.34 474 60.68 474 60 474 C60 474.66 60 475.32 60 476 C58.36 477.69 56.69 479.35 55 481 C54.28 481.93 53.56 482.86 52.81 483.81 C51 486 51 486 49 486 C48.67 487.32 48.34 488.64 48 490 C47.01 490 46.02 490 45 490 C44.34 491.32 43.68 492.64 43 494 C42.01 494.33 41.02 494.66 40 495 C40 495.66 40 496.32 40 497 C39.2 497.14 38.39 497.29 37.56 497.44 C36.72 497.62 35.87 497.81 35 498 C34.67 498.99 34.34 499.98 34 501 C32.34 501.36 30.67 501.7 29 502 C29 502.66 29 503.32 29 504 C19.72 507.77 11.88 508.55 3 503 C-4 496.51 -6.01 489.19 -4.72 479.73 C-1.95 469.22 5.08 460.23 13 453 C13.66 453 14.32 453 15 453 C15.66 451.68 16.32 450.36 17 449 C20 445 20 445 22 445 C22 444.34 22 443.68 22 443 C27.45 437.01 33.74 430.63 41 427 C41.66 425.68 42.32 424.36 43 423 C46 420 46 420 48.31 418.19 C51 416 51 416 54.19 412.75 C57 410 57 410 59 410 C59 409.34 59 408.68 59 408 C63 405 63 405 65 405 C65 404.34 65 403.68 65 403 C70.6 398.32 76.56 394.12 82.5 389.88 C83.2 389.37 83.9 388.87 84.62 388.35 C88.25 385.78 91.82 383.57 95.81 381.59 C100.57 378.65 101.68 376.86 103.56 371.69 C104.04 370.43 104.51 369.18 105 367.89 C105.33 366.93 105.66 365.98 106 365 C105.13 364.86 104.26 364.73 103.36 364.59 C100.27 364.05 97.28 363.37 94.25 362.56 C93.78 362.44 93.78 362.44 91.39 361.82 C89 361 89 361 87 359 C85.68 358.34 84.36 357.68 83 357 C82.34 357.66 81.68 358.32 81 359 C81 358.01 81 357.02 81 356 C79.68 356.66 78.36 357.32 77 358 C77 357.34 77 356.68 77 356 C75.62 355.88 74.24 355.75 72.81 355.62 C66.23 354.77 66.23 354.77 63 353 C63 352.34 63 351.68 63 351 C61.68 351.33 60.36 351.66 59 352 C58.01 351.01 57.02 350.02 56 349 C54.35 349 52.7 349 51 349 C51 348.34 51 347.68 51 347 C49.68 347 48.36 347 47 347 C46.01 346.01 45.02 345.02 44 344 C41.27 342.44 38.49 341.03 35.69 339.6 C32.98 337.99 31.17 336.27 29 334 C27.6 332.93 26.19 331.89 24.75 330.88 C21 328 21 328 21 326 C20.34 326 19.68 326 19 326 C19 325.34 19 324.68 19 324 C18.01 323.67 17.02 323.34 16 323 C15.01 321.68 14.02 320.36 13 319 C12.34 318.67 11.68 318.34 11 318 C10.01 316.68 9.02 315.36 8 314 C7.01 313.67 6.02 313.34 5 313 C4.28 311.02 3.62 309.02 3 307 C2.34 306.34 1.68 305.68 1 305 C1 303.35 1 301.7 1 300 C0.01 299.67 -0.98 299.34 -2 299 C-5 291.22 -5 291.22 -5 287 C-5.66 287 -6.32 287 -7 287 C-7.56 284.63 -7.56 284.63 -8 281.56 C-8.44 278.5 -8.44 278.5 -9 276 C-9.66 275.67 -10.32 275.34 -11 275 C-12.19 271.19 -12.82 267.23 -13.56 263.31 C-13.79 262.14 -14.01 260.96 -14.24 259.75 C-16.05 249.71 -16.86 239.88 -16.97 229.69 C-17 226.96 -17.07 224.24 -17.15 221.52 C-17.95 184.89 -17.95 184.89 -11 171 C-12.32 171.33 -13.64 171.66 -15 172 C-21.83 164.72 -26.35 155.2 -30 146 C-30.37 145.08 -30.73 144.16 -31.11 143.21 C-39.56 119.05 -40.28 91.04 -36 66 C-35.85 65.12 -35.7 64.24 -35.54 63.34 C-34.43 56.88 -33.26 50.43 -32 44 C-31.83 43.12 -31.67 42.24 -31.5 41.34 C-31.07 39.21 -30.55 37.1 -30 35 C-29.34 35 -28.68 35 -28 35 C-27.55 32.66 -27.11 30.33 -26.68 27.99 C-24.26 17.39 -19.02 5.23 -9 0 C-5.04 -0.99 -3.79 -0.76 0 0 Z " fill="#C5D8DE" transform="translate(363,258)"/>
<path d="M0 0 C11.56 9.55 13.41 19.28 12.38 33.49 C11.77 38.22 10.5 41.4 7.88 45.38 C7.43 46.07 6.98 46.77 6.52 47.48 C1.51 54.83 -3.93 57.88 -12.64 58.41 C-19.59 58.32 -24.38 56.44 -29.12 51.38 C-36.57 39.22 -39.06 25.33 -33.46 11.86 C-30.47 6.3 -26.83 2.23 -21.12 -0.62 C-16.88 -0.25 -16.88 -0.25 -13.12 0.38 C-13.12 -0.29 -13.12 -0.94 -13.12 -1.62 C-8.82 -3.78 -4.04 -2.1 0 0 Z " fill="#5D6A70" transform="translate(604.125,480.625)"/>
<path d="M0 0 C9.2 9.79 10.33 21.16 8.94 34.12 C7.11 42.6 2.14 49 -4.75 54.12 C-11.8 56.25 -19.92 56.56 -26.06 52.12 C-35.23 43.9 -40.1 34.78 -39.06 22.12 C-37.75 19.69 -37.75 19.69 -36.06 17.12 C-34.45 12.69 -33.12 8.45 -32.25 3.81 C-27.83 -9.9 -9.12 -5.59 0 0 Z " fill="#5D6A70" transform="translate(449.0625,483.875)"/>
<path d="M0 0 C2.85 2.68 4.9 5.22 6.8 8.63 C7.31 9.52 7.81 10.41 8.32 11.33 C8.84 12.25 9.35 13.17 9.88 14.12 C21.02 34.02 21.02 34.02 24 37 C25.08 38.79 26.12 40.61 27.12 42.44 C27.66 43.41 28.2 44.37 28.76 45.37 C30 48 30 48 30 51 C27.54 51.55 25.07 52.09 22.58 52.47 C20 53 20 53 16 55 C15.34 54.67 14.68 54.34 14 54 C14 53.34 14 52.68 14 52 C13.01 52 12.02 52 11 52 C10 49 9 46 8 43 C7.01 43 6.02 43 5 43 C5 42.34 5 41.68 5 41 C5.66 41 6.32 41 7 41 C6.01 40.01 5.02 39.02 4 38 C4 37.01 4 36.02 4 35 C3.34 34.67 2.68 34.34 2 34 C0.97 32.24 -0 30.44 -0.94 28.62 C-2.77 25.08 -4.14 22.86 -7 20 C-7.18 19.56 -7.18 19.56 -8.06 17.31 C-8.37 16.55 -8.68 15.79 -9 15 C-9.66 15 -10.32 15 -11 15 C-14 11 -14 11 -14 8 C-11.79 7.27 -9.57 6.55 -7.34 5.89 C-4.09 4.65 -2.2 2.63 0 0 Z " fill="#C1F6F3" transform="translate(526,193)"/>
<path d="M0 0 C0.33 0 0.66 0 1 0 C1.12 0.81 1.24 1.62 1.37 2.45 C1.45 2.98 1.45 2.98 1.88 5.69 C1.96 6.22 1.96 6.22 2.37 8.89 C2.96 11.8 3.8 14.29 5 17 C0.06 18.22 -4.94 18.35 -10 18.56 C-10.48 18.58 -10.48 18.58 -12.93 18.69 C-27.65 19.27 -42.32 19.38 -57 18 C-56.25 15.56 -55.5 13.12 -54.75 10.68 C-54 8 -54 8 -53.93 5.37 C-53.62 4.59 -53.32 3.81 -53 3 C-49.72 2.36 -49.72 2.36 -45.35 2.33 C-44.57 2.32 -44.57 2.32 -40.62 2.25 C-38.97 2.25 -37.32 2.25 -35.62 2.25 C-32.39 2.22 -29.15 2.18 -25.91 2.14 C-25.19 2.14 -25.19 2.14 -21.54 2.13 C-18 2 -18 2 -15 1 C-15 1.66 -15 2.32 -15 3 C-10.05 2.67 -5.1 2.34 0 2 C0 1.34 0 0.68 0 0 Z " fill="#C0F6F3" transform="translate(538,251)"/>
<path d="M0 0 C0.52 0.46 0.52 0.46 3.12 2.81 C5.63 5 7.4 6.18 10.5 7.56 C11.32 8.04 12.15 8.51 13 9 C12.75 13.03 11.23 15.41 8.81 18.56 C5.32 23.34 2.75 28.27 0.26 33.63 C-1 36 -1 36 -3 37 C-3.68 38.66 -4.34 40.33 -5 42 C-6.29 44.27 -7.63 46.52 -9 48.75 C-9.7 49.9 -10.4 51.05 -11.12 52.23 C-13 55 -13 55 -15 56 C-17 55 -19 54 -21 53 C-23 52.65 -25 52.32 -27 52 C-27.66 51.34 -28.32 50.68 -29 50 C-27.64 47.24 -26.22 44.68 -24.62 42.06 C-20 34.37 -20 34.37 -20 31 C-19.01 31 -18.02 31 -17 31 C-16.27 29.36 -15.62 27.69 -15 26 C-13.02 22.67 -10.95 19.42 -8.88 16.16 C-7 13 -7 13 -5.94 10.28 C-5 8 -5 8 -2 5 C-0.81 2.31 -0.81 2.31 0 0 Z " fill="#C0F6F3" transform="translate(496,192)"/>
<path d="M0 0 C3.29 3.59 4.11 5.86 3.94 10.75 C2.75 15.48 0.98 18.08 -3.19 20.62 C-8.61 21.86 -12.61 21.33 -16.94 17.81 C-18.94 15.25 -18.94 15.25 -18.94 13.25 C-19.93 13.25 -20.92 13.25 -21.94 13.25 C-18.44 2.25 -18.44 2.25 -15.94 -1.75 C-10.22 -3.18 -5.15 -3.07 0 0 Z " fill="#C0F6F3" transform="translate(564.9375,249.75)"/>
<path d="M0 0 C4.1 4.1 3.53 6.35 3 12 C1.06 16.85 -0.97 18.34 -5.88 19.56 C-10.46 20.23 -13.16 19.81 -17 17 C-20.34 12.55 -20.83 10.46 -21 5 C-19.69 2.19 -19.69 2.19 -18 0 C-17.34 -0.99 -16.68 -1.98 -16 -3 C-9.07 -4.73 -5.73 -4.46 0 0 Z " fill="#BFF6F3" transform="translate(521,176)"/>
<path d="M0 0 C6.35 2.7 6.35 2.7 8.56 6.94 C9.73 12.54 10.5 16.47 6.56 20.94 C2.08 24.89 -1.81 23.95 -7.44 22.94 C-12.18 21.46 -12.18 21.46 -13.44 18.94 C-14.96 12.87 -14.03 7.86 -10 3 C-4.83 -1.16 -4.83 -1.16 0 0 Z " fill="#C0F6F3" transform="translate(469.4375,247.0625)"/>
<path d="M0 0 C1.45 -0.03 2.91 -0.07 4.4 -0.1 C5.79 -0.11 7.17 -0.11 8.59 -0.12 C9.87 -0.13 11.14 -0.15 12.46 -0.16 C15.5 0.44 15.5 0.44 16.99 2.72 C17.5 5.44 17.5 5.44 16.5 9.44 C13.17 9.89 13.17 9.89 8.75 9.83 C7.17 9.82 5.59 9.8 3.97 9.79 C2.29 9.76 0.62 9.72 -1.06 9.69 C-2.74 9.67 -4.43 9.65 -6.11 9.63 C-10.24 9.59 -14.37 9.52 -18.5 9.44 C-17.18 -2.41 -10.35 0.04 0 0 Z " fill="#BBF7F4" transform="translate(514.5,702.5625)"/>
<path d="M0 0 C8.35 6.93 13.45 18.3 18 28 C12.25 32 12.25 32 10 32 C8.14 29.2 6.4 26.39 4.69 23.5 C3.73 21.91 2.78 20.31 1.82 18.72 C1.36 17.93 0.89 17.15 0.42 16.34 C-0.97 14.05 -2.44 11.83 -3.92 9.59 C-6 6 -6 6 -5 3 C-2.75 1 -2.75 1 0 0 Z " fill="#BBF7F4" transform="translate(522,668)"/>
<path d="M0 0 C4.75 1.88 4.75 1.88 7 3 C6.74 7.87 4.12 11.73 1.75 15.88 C0.98 17.23 0.21 18.59 -0.58 19.99 C-2.9 23.84 -5.14 27.52 -8 31 C-11.81 30.62 -11.81 30.62 -15 29 C-15 24.68 -13.02 22.17 -10.88 18.44 C-10.47 17.73 -10.47 17.73 -8.4 14.12 C-5.64 9.39 -2.85 4.68 0 0 Z " fill="#BBF7F4" transform="translate(504,668)"/>
<path d="M0 0 C0.66 0 1.32 0 2 0 C1.38 6 0.56 11.92 -0.44 17.88 C-3.12 34.52 -4.36 51.17 -5 68 C-5.66 68 -6.32 68 -7 68 C-11.67 49.31 -5.64 27.56 -2 9 C-1.83 8.12 -1.67 7.24 -1.5 6.34 C-1.07 4.21 -0.55 2.1 0 0 Z " fill="#E4EEF0" transform="translate(333,293)"/>
<path d="M0 0 C3.48 4.64 3.47 5.6 2 11 C-2.14 14.1 -3.1 14.73 -8 14 C-11.47 9.37 -11.45 7.61 -11 2 C-7.72 -1.28 -4.41 -0.36 0 0 Z " fill="#BBF7F4" transform="translate(546,700)"/>
<path d="M0 0 C2.95 4.42 2.16 8.87 2 14 C1.98 14.54 1.98 14.54 1.9 17.25 C1.74 21.83 1.55 26.4 1.36 30.97 C1.11 37.14 0.98 43.28 1.01 49.45 C0.99 53.37 0.75 57.27 0.5 61.19 C0.41 62.67 0.31 64.14 0.22 65.67 C0.15 66.77 0.07 67.87 0 69 C-0.66 68.67 -1.32 68.34 -2 68 C-2.25 65.43 -2.25 65.43 -2.26 61.97 C-2.27 60.68 -2.27 59.38 -2.28 58.05 C-2.27 56.65 -2.27 55.24 -2.27 53.79 C-2.27 52.35 -2.27 50.92 -2.27 49.44 C-2.27 46.4 -2.27 43.36 -2.26 40.32 C-2.25 35.65 -2.26 30.99 -2.27 26.32 C-2.27 23.37 -2.27 20.42 -2.27 17.48 C-2.27 16.07 -2.27 14.67 -2.28 13.22 C-2.27 11.93 -2.27 10.63 -2.26 9.29 C-2.26 8.15 -2.26 7 -2.25 5.82 C-2 3 -2 3 0 0 Z " fill="#DAE8EB" transform="translate(500,813)"/>
<path d="M0 0 C1 2 1 2 -0.14 4.6 C-0.69 5.6 -1.25 6.6 -1.81 7.62 C-2.36 8.63 -2.9 9.63 -3.46 10.66 C-3.71 11.05 -3.71 11.05 -5 13 C-5.66 13 -6.32 13 -7 13 C-7 13.66 -7 14.32 -7 15 C-7.66 15 -8.32 15 -9 15 C-9 15.66 -9 16.32 -9 17 C-10.64 18.69 -12.31 20.35 -14 22 C-14.72 22.93 -15.44 23.86 -16.19 24.81 C-18 27 -18 27 -20 27 C-20.33 28.32 -20.66 29.64 -21 31 C-21.99 31 -22.98 31 -24 31 C-24.66 32.32 -25.32 33.64 -26 35 C-26.5 35.16 -26.5 35.16 -29 36 C-29 36.66 -29 37.32 -29 38 C-29.8 38.14 -30.61 38.29 -31.44 38.44 C-32.28 38.62 -33.13 38.81 -34 39 C-34.33 39.99 -34.66 40.98 -35 42 C-37.56 42.69 -37.56 42.69 -40 43 C-37.37 38.51 -35.79 36.8 -31 35 C-29.63 33.36 -28.31 31.69 -27 30 C-24.67 28 -22.33 26 -20 24 C-18.66 22.34 -17.33 20.67 -16 19 C-15.34 19 -14.68 19 -14 19 C-13.77 18.32 -13.55 17.64 -13.31 16.94 C-11.38 12.61 -8.5 10.19 -5 7 C-4.34 7 -3.68 7 -3 7 C-2.65 5.34 -2.32 3.67 -2 2 C-1.34 1.34 -0.68 0.68 0 0 Z " fill="#E3EEEF" transform="translate(432,717)"/>
<path d="M0 0 C2.78 2.95 3.14 4.18 2.44 8.19 C1 11 1 11 -3 13 C-8.56 12.67 -8.56 12.67 -11 9 C-11.46 5.4 -11.41 3.64 -9.44 0.56 C-5.9 -1.7 -3.94 -1.22 0 0 Z " fill="#BBF7F4" transform="translate(519,656)"/>
<path d="M0 0 C3 3 3 3 3.56 5.88 C2.75 10.36 0.79 11.64 -3 14 C-5.75 14 -5.75 14 -8 13 C-10.61 9.08 -10.44 6.63 -10 2 C-5.99 -0 -4.34 -0.46 0 0 Z " fill="#BBF7F4" transform="translate(491,700)"/>
<path d="M0 0 C0.66 0.33 1.32 0.66 2 1 C-0.08 3.13 -2.16 5.26 -4.25 7.38 C-4.84 7.98 -5.42 8.58 -6.03 9.2 C-8.94 12.15 -11.25 14.13 -15 16 C-16.73 17.64 -18.42 19.34 -20.06 21.06 C-24.67 25.89 -24.67 25.89 -28 27 C-26.02 23.03 -24.15 20.9 -20.69 18.19 C-18 16 -18 16 -14.81 12.75 C-12 10 -12 10 -10 10 C-10 9.34 -10 8.68 -10 8 C-6 5 -6 5 -4 5 C-4 4.34 -4 3.68 -4 3 C-2.68 2.01 -1.36 1.02 0 0 Z M-30 27 C-29.34 27.33 -28.68 27.66 -28 28 C-36.25 36.25 -44.5 44.5 -53 53 C-53 49.07 -51.61 47.84 -49 45 C-48.34 45 -47.68 45 -47 45 C-47 44.34 -47 43.68 -47 43 C-43.07 38.67 -38.57 34.88 -34.21 30.99 C-32.77 29.69 -31.37 28.37 -30 27 Z " fill="#E3EEF0" transform="translate(432,658)"/>
<path d="M0 0 C1.32 0.99 2.64 1.98 4 3 C9.95 3.5 12.13 3.65 17 0 C20.37 0.19 22.81 1.35 25.94 2.69 C31.64 4.53 34.18 3.21 39 0 C39 4 39 4 37.06 5.75 C32.89 7.45 29.46 7.32 25 7 C24.01 6.34 23.02 5.68 22 5 C17.66 4.63 16.02 4.99 12 7 C6.3 7.54 2.92 7.43 -1 3 C-0.67 2.01 -0.34 1.02 0 0 Z " fill="#5D6A70" transform="translate(493,551)"/>
<path d="" fill="#FFFFFF" transform="translate(0,0)"/>
</svg>
