<?xml version="1.0" encoding="UTF-8"?>
<!-- Generator: visioncortex VTracer 0.6.5 -->
<svg version="1.1" xmlns="http://www.w3.org/2000/svg" width="1024" height="1024">
<path d="M0 0 C1.68 0.97 3.35 1.97 5 3 C6.82 3.7 8.66 4.37 10.5 5 C24.85 10.4 38.53 18.11 51 27 C51.82 27.55 52.64 28.1 53.48 28.66 C85.41 50.17 85.41 50.17 88 65 C89.44 64.67 90.89 64.34 92.38 64 C95.95 63.18 98.92 63.01 102.62 63.07 C107.61 63.09 112.26 62.4 117.17 61.52 C127.57 59.81 137.78 59.57 148.3 59.66 C151.29 59.69 154.28 59.68 157.28 59.68 C159.21 59.68 161.14 59.69 163.08 59.7 C163.96 59.7 164.84 59.7 165.75 59.7 C171.12 59.76 175.84 60.54 181 62 C182.74 62.22 184.5 62.39 186.25 62.5 C192.24 62.97 198.09 63.95 204 65 C206 65.34 208 65.67 210 66 C209.76 65.28 209.52 64.56 209.27 63.82 C208.72 58.1 214.36 53.96 218 50 C218.91 49.01 219.81 48.02 220.75 47 C232.48 34.76 246.46 25.58 261 17 C261.85 16.49 262.7 15.98 263.58 15.46 C296.44 -3.98 296.44 -3.98 312 2 C323.11 11.5 325.84 26.02 328.94 39.56 C329.2 40.72 329.47 41.88 329.74 43.07 C330.5 46.38 331.25 49.69 332 53 C332.35 54.53 332.7 56.06 333.06 57.64 C333.19 58.25 333.19 58.25 333.88 61.31 C333.99 61.82 333.99 61.82 334.55 64.36 C335 67 335 67 335 72 C335.33 72.99 335.66 73.98 336 75 C336.27 80.83 336.25 86.67 336.25 92.5 C336.25 93.34 336.25 94.19 336.25 95.05 C336.24 107.32 335.78 119 333 131 C332.76 132.26 332.51 133.52 332.26 134.82 C329.31 148.19 322.17 162.66 312 172 C308.18 170.73 308.22 169.65 307 166 C307.13 166.73 307.13 166.73 307.81 170.44 C307.9 170.94 307.9 170.94 308.36 173.48 C308.81 175.97 309.27 178.46 309.73 180.95 C311.29 189.52 312.58 198.06 313.57 206.71 C314 210 314 210 315 214 C314.97 216 314.87 218 314.73 219.99 C314.65 221.16 314.56 222.34 314.48 223.55 C314.38 224.79 314.29 226.03 314.19 227.31 C314.09 228.58 314 229.85 313.9 231.15 C313.23 239.82 312.36 248.41 311 257 C310.85 258.08 310.69 259.16 310.54 260.28 C309.65 266.23 308.19 271.37 306 277 C305.84 278.2 305.67 279.39 305.5 280.62 C304.96 284.29 303.73 286.75 302 290 C301.67 291.32 301.34 292.64 301 294 C300.11 295.86 299.17 297.69 298.19 299.5 C297.69 300.44 297.18 301.38 296.67 302.34 C295.02 304.97 293.21 306.85 291 309 C290.71 309.76 290.42 310.53 290.12 311.31 C288.5 315.2 285.79 317.87 283 321 C282.5 321.66 282.5 321.66 280 325 C279.34 325 278.68 325 278 325 C277.34 326.32 276.68 327.64 276 329 C264.22 339.49 242.77 356 226 356 C226 356.66 226 357.32 226 358 C225.07 358.11 224.14 358.22 223.18 358.33 C216.6 359.18 211.02 360.1 205 363 C201.02 364.4 197.01 365.7 193 367 C194.58 377.4 198.57 380.73 207.7 385.34 C216.25 389.65 223.16 395.54 230.35 401.82 C232.64 403.81 234.94 405.78 237.27 407.71 C245.87 414.84 253.72 422.56 261.54 430.53 C265.41 434.45 269.26 438.31 273.43 441.91 C277.03 445.03 279.95 448.35 283 452 C283.39 452.37 283.39 452.37 285.38 454.25 C294.73 464.05 304.18 477.46 302.73 491.67 C301.19 498.26 297.93 502.69 292 506 C281.23 508.38 271.96 506.44 263 500 C262.14 499.41 261.27 498.82 260.38 498.21 C251 491.68 243.64 484.26 237 475 C236.32 474.2 235.64 473.39 234.94 472.56 C233.18 470.24 231.87 468 230.5 465.44 C228.05 460.91 226.04 457.68 221 456 C222.97 463.54 224.81 470.35 229 477 C230.23 481.93 230.42 486.72 230.72 491.79 C231 495 231 495 232 498 C232.2 499.96 232.36 501.91 232.5 503.88 C232.71 506.89 232.94 509.74 233.59 512.7 C234 515 234 515 233 518 C234.32 518.66 235.64 519.32 237 520 C236.67 520.99 236.34 521.98 236 523 C235.34 523 234.68 523 234 523 C234 522.34 234 521.68 234 521 C233.34 521 232.68 521 232 521 C231.99 521.84 231.97 522.69 231.96 523.56 C231.47 536.55 229.41 549.21 227.39 562.04 C226.22 569.48 225.15 576.93 224.12 584.39 C222.38 596.9 220.52 609.37 218.31 621.81 C218.11 622.96 217.91 624.11 217.7 625.3 C215.75 636.04 213.7 642.83 205 650 C204.5 650.5 204.5 650.5 202 653 C195.32 656.65 189.62 658.2 182 657 C178.69 655.19 178.69 655.19 176 653 C175.5 652.79 175.5 652.79 173 651.75 C163.6 646.26 162.63 637.76 161.71 627.85 C161.06 619.58 160.97 611.44 161.18 603.16 C161.23 600.59 161.27 598.02 161.3 595.45 C161.36 591.45 161.44 587.46 161.55 583.46 C161.65 579.57 161.7 575.68 161.75 571.78 C161.79 570.59 161.83 569.39 161.88 568.16 C161.9 562.43 161.9 558.94 157.18 555.28 C153.09 553.05 150.65 551.74 146 552 C143.31 554.25 143.31 554.25 141 557 C139.68 557.99 138.36 558.98 137 560 C136.45 562.32 136.45 562.32 136.39 565.06 C136.36 566.07 136.33 567.09 136.29 568.13 C136.28 569.22 136.26 570.31 136.25 571.44 C136.22 572.57 136.19 573.7 136.16 574.86 C136 581.49 136 588.12 136.06 594.75 C136.1 603.23 135.72 611.66 135.19 620.12 C135.12 621.35 135.05 622.57 134.97 623.83 C134.25 634.38 133.17 642.85 125.25 650.56 C124.24 651.57 123.24 652.59 122.2 653.63 C115.82 658.36 107.51 657.51 100 656 C87.99 651.4 83.2 641.87 79.97 630.09 C78.19 622.57 77.1 614.95 76 607.31 C75.74 605.58 75.48 603.84 75.23 602.1 C74.71 598.66 74.2 595.21 73.7 591.76 C73.09 587.64 72.47 583.52 71.83 579.4 C66.71 546.13 63.57 514.73 68.94 481.31 C69.1 480.32 69.25 479.33 69.41 478.31 C70.43 472.28 71.97 466.77 74 461 C74.43 459.32 74.84 457.64 75.19 455.94 C75.46 454.64 75.72 453.34 76 452 C71.1 457.2 67.53 462.23 64.26 468.58 C63 471 63 471 61 474 C60.34 474 59.68 474 59 474 C59 474.66 59 475.32 59 476 C57.37 477.7 55.69 479.36 54 481 C51.25 484.01 48.53 487.03 45.82 490.06 C43.03 492.96 40.13 495.48 37 498 C36.2 498.68 35.39 499.36 34.56 500.06 C25.92 506.6 17.26 509.28 6.62 506.96 C1.32 505.02 -2.53 501.42 -5.44 496.62 C-8.77 481.05 -3.88 470.06 6.54 458.77 C10.56 454.51 14.66 450.33 18.82 446.2 C21 444 21 444 23.31 441.12 C26 438 28.83 435.45 31.96 432.79 C33.88 431.1 35.7 429.3 37.5 427.5 C40.59 424.41 43.75 421.57 47.05 418.73 C48.82 417.16 50.48 415.46 52.12 413.75 C56.53 409.26 61.55 405.54 66.52 401.7 C69.39 399.47 72.2 397.19 75 394.88 C82.1 389.17 89.85 384.07 98 380 C99.48 377.47 99.48 377.47 100.75 374.5 C101.18 373.52 101.61 372.54 102.05 371.53 C103 369 103 369 103 367 C100.64 366.1 98.23 365.31 95.81 364.56 C88.53 362.32 88.53 362.32 85.31 360.38 C81.76 358.26 78.06 358.36 74 358 C73.67 357.67 73.34 357.34 73 357 C70.52 356.52 68.03 356.04 65.54 355.6 C61.74 354.7 58.49 352.74 55 351 C53.62 350.59 52.24 350.17 50.81 349.75 C45.56 348.05 41.46 345.18 37 342 C36.06 341.38 35.13 340.77 34.16 340.13 C30.73 337.82 27.42 335.38 24.12 332.88 C22.97 332.01 21.82 331.14 20.63 330.24 C18 328 18 328 18 326 C16.68 325.34 15.36 324.68 14 324 C12.22 322.16 12.22 322.16 10.5 320.06 C8.08 317.12 6.14 315.36 3 313 C-0.81 306.72 -3.51 299.89 -6 293 C-6.46 292.14 -6.92 291.27 -7.39 290.38 C-9.41 286.13 -10.72 281.76 -12 277.25 C-12.25 276.43 -12.5 275.6 -12.75 274.75 C-16.97 260.05 -18.49 245.23 -18.76 230 C-18.81 227.37 -18.89 224.74 -18.97 222.1 C-19.35 206.81 -17.51 192.42 -14.1 177.55 C-14 174 -14 174 -16.22 171.79 C-16.68 171.5 -16.68 171.5 -19 170 C-37.19 148.66 -39.67 118.82 -40 92 C-40.01 91.21 -40.01 91.21 -40.06 87.21 C-39.91 76.79 -37.79 66.45 -36.06 56.19 C-35.98 55.71 -35.98 55.71 -35.58 53.3 C-34.5 47.01 -32.94 41.08 -31 35 C-30.55 33.56 -30.09 32.11 -29.62 30.62 C-20.76 5.4 -20.76 5.4 -11 1 C-6.25 0.81 -6.25 0.81 -2 1 C-1.34 0.67 -0.68 0.34 0 0 Z " fill="#C4D7DE" transform="translate(365,257)"/>
<path d="M0 0 C0.16 0.5 0.16 0.5 1 3 C1.16 3.33 1.16 3.33 2 5 C3.25 7.88 3.25 7.88 4 11 C3.01 12.32 2.02 13.64 1 15 C1 13.68 1 12.36 1 11 C0.34 11 -0.32 11 -1 11 C-1 11.66 -1 12.32 -1 13 C-1.99 13.33 -2.98 13.66 -4 14 C-4.88 16.5 -4.88 16.5 -5.56 19.56 C-6.25 22.63 -6.25 22.63 -7 25 C-7.66 25 -8.32 25 -9 25 C-9 27.31 -9 29.62 -9 32 C-8.34 32 -7.68 32 -7 32 C-6.34 30.68 -5.68 29.36 -5 28 C-3.68 27.34 -2.36 26.68 -1 26 C-1.29 26.63 -1.57 27.27 -1.87 27.92 C-3.65 32.77 -4.54 37.8 -5.59 42.85 C-6.03 44.9 -6.51 46.95 -7 49 C-7.33 49 -7.66 49 -8 49 C-8 47.35 -8 45.7 -8 44 C-8.66 44 -9.32 44 -10 44 C-10 43.01 -10 42.02 -10 41 C-10.66 41 -11.32 41 -12 41 C-12.74 43.18 -13.47 45.35 -14.14 47.55 C-15.34 50.96 -17.13 53.92 -19 57 C-19.66 58.32 -20.32 59.64 -21 61 C-20.67 61 -20.34 61 -20 61 C-19.67 61.66 -19.34 62.32 -19 63 C-19.68 64.13 -20.36 65.27 -21.06 66.44 C-21.38 67.03 -21.38 67.03 -23 70 C-22.67 70.5 -22.67 70.5 -21 73 C-21.22 76.01 -21.57 79.01 -22 82 C-22.17 83.42 -22.33 84.85 -22.5 86.31 C-23.47 93.47 -23.47 93.47 -27 97 C-27.16 97.5 -27.16 97.5 -28 100 C-28.66 100 -29.32 100 -30 100 C-29.34 94.73 -28.25 89.7 -26.94 84.56 C-26.58 83.14 -26.21 81.72 -25.84 80.25 C-25.7 79.72 -25.7 79.72 -25 77 C-29.9 82.2 -33.47 87.23 -36.74 93.58 C-38 96 -38 96 -40 99 C-40.66 99 -41.32 99 -42 99 C-42 99.66 -42 100.32 -42 101 C-43.63 102.7 -45.31 104.36 -47 106 C-49.75 109.01 -52.47 112.03 -55.18 115.06 C-57.97 117.96 -60.87 120.48 -64 123 C-64.8 123.68 -65.61 124.36 -66.44 125.06 C-75.08 131.6 -83.74 134.28 -94.38 131.96 C-99.68 130.02 -103.53 126.42 -106.44 121.62 C-109.77 106.05 -104.88 95.06 -94.46 83.77 C-90.44 79.51 -86.34 75.33 -82.18 71.2 C-80 69 -80 69 -77.69 66.12 C-75 63 -72.17 60.45 -69.04 57.79 C-67.12 56.1 -65.3 54.3 -63.5 52.5 C-60.41 49.41 -57.25 46.57 -53.95 43.73 C-52.18 42.16 -50.52 40.46 -48.88 38.75 C-44.47 34.26 -39.45 30.54 -34.48 26.7 C-31.61 24.47 -28.8 22.19 -26 19.88 C-18.9 14.17 -11.15 9.07 -3 5 C-1.25 2.38 -1.25 2.38 0 0 Z " fill="#C9DBE1" transform="translate(466,632)"/>
<path d="M0 0 C12.57 4.19 22.53 12.25 32.35 20.82 C34.64 22.81 36.94 24.78 39.27 26.71 C47.87 33.84 55.72 41.56 63.54 49.53 C67.41 53.45 71.26 57.31 75.43 60.91 C79.03 64.03 81.95 67.35 85 71 C85.78 71.74 86.57 72.49 87.38 73.25 C96.73 83.05 106.18 96.46 104.73 110.67 C103.19 117.26 99.93 121.69 94 125 C83.23 127.38 73.96 125.44 65 119 C64.14 118.41 63.27 117.82 62.38 117.21 C53 110.68 45.64 103.26 39 94 C38.32 93.2 37.64 92.39 36.94 91.56 C35.18 89.24 33.87 87 32.5 84.44 C29.71 79.31 27.86 76.47 22 75 C20.62 71.56 20.62 71.56 20 68 C20.33 67.67 20.33 67.67 22 66 C21.67 64.68 21.34 63.36 21 62 C21.06 61.03 21.12 60.06 21.19 59.06 C20.95 55.18 19.58 53.81 17 51 C16 49 16 49 16.25 46 C16.21 45.5 16.21 45.5 16 43 C15.19 42.73 14.39 42.46 13.56 42.18 C11 41 11 41 10.14 38.36 C10.03 37.31 9.93 36.26 9.81 35.19 C9.35 31.07 8.54 27.83 7 24 C7 22.68 7 21.36 7 20 C6.01 19.67 5.02 19.34 4 19 C1.36 13.43 0.89 9.09 1 3 C0.34 2.34 -0.32 1.68 -1 1 C-0.67 0.67 -0.34 0.34 0 0 Z " fill="#CADBE1" transform="translate(563,638)"/>
<path d="M0 0 C8.86 10.55 11.18 22.78 8.31 36.23 C5.49 44.76 0.54 51.61 -8 55 C-17.96 56.1 -24.21 55.17 -31.12 47.75 C-39.57 37.8 -42.14 27.63 -39.28 14.77 C-37.33 8.57 -34.83 3.24 -31 -2 C-30.34 -2 -29.68 -2 -29 -2 C-29 -2.66 -29 -3.32 -29 -4 C-18.48 -7.64 -8.29 -8.01 0 0 Z " fill="#303639" transform="translate(449,484)"/>
<path d="M0 0 C6.6 10.53 6.45 25.41 2.2 36.91 C-1.59 44.42 -7.68 49.7 -15.8 52.04 C-23.53 53.07 -28.68 52.24 -34.8 47.04 C-43.49 36.05 -46.19 23.46 -42.74 9.79 C-42.15 8.18 -41.5 6.6 -40.8 5.04 C-40.44 4.2 -40.08 3.36 -39.71 2.49 C-36.03 -3.9 -31.39 -4.9 -24.36 -5.59 C-6.33 -6.89 -6.33 -6.89 0 0 Z " fill="#353C3F" transform="translate(611.80078125,486.9609375)"/>
<path d="M0 0 C1.82 2.55 1.82 2.55 3.84 6.1 C4.57 7.37 5.31 8.65 6.06 9.97 C6.83 11.32 7.59 12.67 8.38 14.06 C9.88 16.7 11.39 19.34 12.9 21.97 C13.57 23.15 14.23 24.33 14.92 25.54 C17.1 29.17 19.52 32.57 22 36 C23.18 38.08 24.31 40.18 25.38 42.31 C25.64 42.83 25.64 42.83 26.96 45.43 C28 48 28 48 27 50 C24.01 50.69 21.01 51.36 18 52 C16.68 52.66 15.36 53.32 14 54 C8.85 51.23 7.83 47.32 6 42 C5.34 41.67 4.68 41.34 4 41 C3.67 39.68 3.34 38.36 3 37 C2.01 35.68 1.02 34.36 0 33 C-1.55 30.21 -3.03 27.39 -4.5 24.56 C-6 22 -6 22 -9 19 C-9.14 18.15 -9.29 17.31 -9.44 16.44 C-10 14 -10 14 -14 12 C-14.66 10.68 -15.32 9.36 -16 8 C-14.6 7.42 -13.2 6.84 -11.75 6.25 C-7.44 4.36 -4.48 0 0 0 Z " fill="#B6F9F5" transform="translate(528,194)"/>
<path d="M0 0 C4 2 4 2 7 5 C8.09 5.62 9.19 6.24 10.31 6.88 C11.2 7.58 12.09 8.28 13 9 C11.98 12.72 10.01 15.69 7.88 18.88 C5.04 23.24 2.53 27.69 0.12 32.31 C-2.69 37.62 -5.58 42.86 -8.69 48 C-9.39 49.18 -10.1 50.35 -10.82 51.56 C-13 54 -13 54 -15.47 53.93 C-16.31 53.62 -17.14 53.31 -18 53 C-19.57 52.73 -21.13 52.46 -22.75 52.19 C-24.15 51.8 -25.56 51.4 -27 51 C-28.3 45.79 -26.97 44.58 -24.25 40.06 C-23.53 38.86 -22.82 37.65 -22.08 36.41 C-21.39 35.28 -20.71 34.16 -20 33 C-19.52 32.19 -19.03 31.37 -18.53 30.53 C-16.48 27.14 -14.36 23.79 -12.25 20.44 C-8.02 13.71 -3.95 6.9 0 0 Z " fill="#B6F8F7" transform="translate(496,193)"/>
<path d="M0 0 C2.35 -0.09 4.7 -0.18 7.05 -0.27 C7.61 -0.31 7.61 -0.31 10.44 -0.52 C13.43 -0.59 15.69 -0.65 18.49 0.41 C20.22 3.67 20.31 6.79 20.49 10.41 C20.8 12.09 21.13 13.75 21.49 15.41 C14.45 17.14 7.07 16.8 -0.15 16.97 C-2.84 17.04 -5.53 17.12 -8.21 17.2 C-30.01 17.78 -30.01 17.78 -38.51 16.41 C-40.03 13.37 -38.72 11.5 -37.63 8.35 C-37.26 7.27 -36.9 6.18 -36.52 5.07 C-35.51 2.41 -35.51 2.41 -34.51 1.41 C-32.82 1.25 -31.12 1.16 -29.42 1.1 C-28.34 1.05 -27.25 1.01 -26.14 0.97 C-21.21 0.81 -16.29 0.67 -11.36 0.54 C-7.57 0.42 -3.79 0.21 0 0 Z " fill="#BAF8F5" transform="translate(520.5078125,252.5859375)"/>
<path d="M0 0 C1.93 2.55 1.93 2.55 3.88 5.88 C4.57 7.05 5.26 8.22 5.97 9.43 C13.52 22.71 13.52 22.71 15.01 26.74 C16.36 29.83 17.9 29.94 21 31 C24 34 24 34 23.94 38.56 C23 43 23 43 19 45 C12.56 44.56 12.56 44.56 10 42 C8.74 34.78 8.74 34.78 10 31 C9.01 31 8.02 31 7 31 C5.06 28.39 3.33 25.82 1.62 23.06 C1.14 22.28 0.65 21.51 0.14 20.7 C-0.82 19.17 -1.77 17.62 -2.72 16.08 C-3.77 14.38 -4.83 12.69 -5.9 11.01 C-7.31 8.69 -7.31 8.69 -9 5 C-6.43 -0.13 -5.72 -1.43 0 0 Z " fill="#C5F5F3" transform="translate(525,669)"/>
<path d="M0 0 C3.95 4.51 3.96 6.65 3.06 12.5 C1.12 17.35 -0.91 18.84 -5.81 20.06 C-10.4 20.73 -13.1 20.31 -16.94 17.5 C-20.39 12.9 -21.71 9.5 -20.25 3.81 C-15.4 -4.74 -7.93 -5.04 0 0 Z " fill="#B3F7F6" transform="translate(520.9375,175.5)"/>
<path d="M0 0 C3.7 3.17 4.9 6.15 5 11 C3.36 16.09 2.37 17.72 -2 21 C-8.79 22.79 -13.21 21.31 -18.56 16.88 C-21.13 11.74 -18.94 7.01 -16.62 2.06 C-12.08 -3.71 -6.13 -1.97 0 0 Z " fill="#B6F9F4" transform="translate(564,249)"/>
<path d="M0 0 C4.41 2.59 6.04 5 7 10 C6.84 15.33 6.64 18.95 2 22 C-4.13 23.8 -8.3 22.42 -14 20 C-14.33 19.01 -14.66 18.02 -15 17 C-15.66 17 -16.32 17 -17 17 C-15.62 4.07 -15.62 4.07 -10 0 C-6.6 -1.7 -3.64 -0.71 0 0 Z " fill="#B6F8F5" transform="translate(472,248)"/>
<path d="M0 0 C0 0.33 0 0.66 0 1 C-4.36 1.28 -7.83 0.85 -11.94 -0.5 C-16.43 -1.94 -20.25 -2.5 -25 -2 C-29.59 2.59 -29.27 8.02 -30.16 14.29 C-30.43 15.51 -30.71 16.74 -31 18 C-31.99 18.33 -32.98 18.66 -34 19 C-35.33 23.95 -36.22 28.94 -37 34 C-36.44 33.98 -36.44 33.98 -33.62 33.88 C-30 34 -30 34 -28 36 C-28.17 36.16 -28.17 36.16 -29 37 C-28.59 41.28 -27.98 45.15 -26 49 C-25.34 49 -24.68 49 -24 49 C-23.67 49.66 -23.34 50.32 -23 51 C-18.12 53.07 -13.25 53.52 -8 54 C-8 54.33 -8 54.66 -8 55 C-21.22 55.53 -26.81 53.48 -35 43 C-41.89 32.4 -41.56 20.4 -37.21 8.75 C-35.48 4.82 -33.54 1.47 -31 -2 C-30.34 -2 -29.68 -2 -29 -2 C-29 -2.66 -29 -3.32 -29 -4 C-17.84 -7.86 -9.13 -7.46 0 0 Z " fill="#5B6368" transform="translate(449,484)"/>
<path d="M0 0 C0.99 0.33 1.98 0.66 3 1 C2.75 5.06 2.75 5.06 2 10 C1.83 11.42 1.67 12.85 1.5 14.31 C0.53 21.47 0.53 21.47 -3 25 C-3.16 25.5 -3.16 25.5 -4 28 C-4.66 28 -5.32 28 -6 28 C-5.34 22.73 -4.25 17.7 -2.94 12.56 C-2.76 11.85 -2.76 11.85 -1.84 8.25 C-1.7 7.72 -1.7 7.72 -1 5 C-5.9 10.2 -9.47 15.23 -12.74 21.58 C-14 24 -14 24 -16 27 C-16.66 27 -17.32 27 -18 27 C-18 27.66 -18 28.32 -18 29 C-19.63 30.7 -21.31 32.36 -23 34 C-25.75 37.01 -28.47 40.03 -31.18 43.06 C-33.97 45.96 -36.87 48.48 -40 51 C-40.4 51.34 -40.4 51.34 -42.44 53.06 C-50.82 59.4 -59.53 62.48 -70 60 C-70.17 59.5 -70.17 59.5 -71 57 C-69.66 57.02 -68.32 57.04 -66.94 57.06 C-60.28 56.98 -55.59 56.72 -50 53 C-49.5 52.84 -49.5 52.84 -47 52 C-46.01 50.85 -45.02 49.69 -44 48.5 C-41 45 -41 45 -38 44 C-36.29 42.38 -34.63 40.7 -33 39 C-32.58 38.59 -32.58 38.59 -30.46 36.54 C-26.08 32.24 -22.3 28.2 -19 23 C-17.68 22.01 -16.36 21.02 -15 20 C-14.66 19.32 -14.66 19.32 -12.94 15.88 C-11 12 -11 12 -8 11 C-7.67 9.68 -7.34 8.36 -7 7 C-4.89 4.28 -2.61 2.3 0 0 Z " fill="#D9E8EE" transform="translate(442,704)"/>
<path d="M0 0 C3.29 0.64 5.21 2.14 8 4 C6.73 9.08 4.25 12.94 1.54 17.39 C1.03 18.23 0.52 19.07 0 19.94 C-0.51 20.78 -1.03 21.62 -1.55 22.48 C-2.91 24.84 -4.02 27.21 -5.12 29.69 C-5.74 30.78 -6.36 31.87 -7 33 C-10.66 32.09 -12.88 31 -16 29 C-12.17 21.23 -8.34 13.5 -4 6 C-3.34 4.78 -2.68 3.57 -2 2.31 C-1.34 1.55 -0.68 0.79 0 0 Z " fill="#C1F4F1" transform="translate(504,667)"/>
<path d="M0 0 C1.5 -0.02 3.01 -0.04 4.56 -0.06 C5.99 -0.07 7.43 -0.07 8.9 -0.08 C9.56 -0.08 9.56 -0.08 12.91 -0.11 C16.06 0.25 16.06 0.25 18.06 3.25 C18.06 8.25 18.06 8.25 17.06 9.25 C14.48 9.34 11.89 9.36 9.31 9.35 C7.73 9.34 6.16 9.34 4.53 9.34 C2.86 9.33 1.18 9.32 -0.5 9.31 C-2.18 9.31 -3.86 9.3 -5.54 9.3 C-9.68 9.29 -13.81 9.27 -17.94 9.25 C-16.58 -3.01 -11.28 0.04 0 0 Z " fill="#C2F5F5" transform="translate(513.9375,702.75)"/>
<path d="M0 0 C2.31 0 4.62 0 7 0 C6.94 1.15 6.88 2.31 6.81 3.5 C7.01 8.3 8.01 11.65 10 16 C10.66 16.33 11.32 16.66 12 17 C13.06 19.98 14.06 22.98 15 26 C15.33 26.99 15.66 27.98 16 29 C16.27 31.77 16.44 34.53 16.62 37.31 C17 40 17 40 19 44 C16.52 43.88 16.52 43.88 14 43 C13.51 40.28 13.51 40.28 13.69 36.94 C13.73 35.83 13.78 34.73 13.82 33.59 C13.88 32.74 13.94 31.88 14 31 C13.34 31 12.68 31 12 31 C12.02 32.38 12.04 33.76 12.06 35.19 C11.97 41.98 11.97 41.98 11 45 C10.34 45 9.68 45 9 45 C9 43.02 9 41.04 9 39 C8.34 39 7.68 39 7 39 C6.89 38.25 6.78 37.5 6.67 36.73 C5.87 31.56 4.98 26.65 3.31 21.69 C1.99 16.96 2.3 14.71 3 10 C1.56 5.69 1.56 5.69 0 2 C0 1.34 0 0.68 0 0 Z " fill="#A6C8D3" transform="translate(558,641)"/>
<path d="M0 0 C2.6 0.33 4.65 0.83 7 2 C7.14 4.55 7.14 4.55 6.98 7.96 C6.93 9.2 6.87 10.45 6.82 11.74 C6.79 12.41 6.79 12.41 6.62 15.81 C6.26 24.57 5.94 33.29 6.06 42.06 C6.1 50.44 5.71 58.76 5.19 67.12 C5.12 68.35 5.05 69.57 4.97 70.83 C4.25 81.38 3.17 89.85 -4.75 97.56 C-5.25 98.07 -5.25 98.07 -7.8 100.63 C-11.36 103.26 -13.63 103.77 -18 104 C-18 103.34 -18 102.68 -18 102 C-15.78 100.77 -13.55 99.55 -11.32 98.34 C-3.97 94.09 0.22 86.06 1.3 77.7 C2.05 68.64 2.33 59.58 2.56 50.5 C2.6 48.91 2.64 47.32 2.69 45.68 C2.8 41.12 2.9 36.56 3 32 C3.02 30.84 3.05 29.68 3.08 28.48 C3.13 25.7 3.16 22.91 3.19 20.12 C3.19 19.39 3.19 19.39 3.23 15.7 C2.9 10.42 1.35 6.7 -1 2 C-0.67 1.34 -0.34 0.68 0 0 Z " fill="#D0E5E9" transform="translate(495,810)"/>
<path d="M0 0 C0 0.33 0 0.66 0 1 C-4.33 1.28 -7.75 0.87 -11.81 -0.5 C-17.11 -2.2 -21.45 -2.46 -27 -2 C-30.7 1.7 -30.82 3.93 -32 9 C-32.64 11.13 -33.31 13.26 -34 15.38 C-34.17 15.88 -34.17 15.88 -35 18.46 C-36 21 -36 21 -38 23 C-38.01 25.64 -38.01 25.64 -37.69 28.81 C-37.59 29.85 -37.49 30.89 -37.39 31.96 C-37.04 34.68 -36.58 37.32 -36 40 C-39.58 38.21 -39.31 34.73 -40 31 C-41.1 18.63 -38.34 8.05 -31 -2 C-30.34 -2 -29.68 -2 -29 -2 C-29 -2.66 -29 -3.32 -29 -4 C-17.84 -7.86 -9.13 -7.46 0 0 Z " fill="#8A9AA0" transform="translate(449,484)"/>
<path d="M0 0 C0.66 0 1.32 0 2 0 C1.25 9.3 1.25 9.3 0.06 12.66 C-1.41 17.29 -1.99 21.94 -2.62 26.75 C-2.76 27.69 -2.89 28.63 -3.03 29.59 C-3.67 34.29 -4.07 38.84 -4.02 43.58 C-4 48 -4 48 -5 50 C-5.07 51.82 -5.08 53.64 -5.06 55.45 C-5.05 56.55 -5.05 57.64 -5.04 58.77 C-5.01 61.07 -4.99 63.38 -4.96 65.68 C-4.95 66.78 -4.95 67.88 -4.94 69.02 C-4.93 70.02 -4.91 71.02 -4.9 72.06 C-5 75.12 -5.43 77.99 -6 81 C-6.66 81 -7.32 81 -8 81 C-8.17 77.19 -8.34 73.38 -8.5 69.56 C-8.55 68.49 -8.6 67.42 -8.64 66.32 C-9.31 50.83 -7.64 36.44 -5.06 21.19 C-4.9 20.23 -4.75 19.28 -4.58 18.3 C-3.5 12.02 -2.1 6.02 0 0 Z " fill="#DFEAEC" transform="translate(334,292)"/>
<path d="M0 0 C0.33 0.16 0.33 0.16 2 1 C-3.32 5.81 -8.65 10.6 -14.06 15.3 C-15.41 16.49 -16.76 17.68 -18.1 18.88 C-18.79 19.5 -19.48 20.12 -20.19 20.75 C-20.49 21.03 -20.49 21.03 -22.04 22.42 C-24 24 -24 24 -26.41 25.34 C-29.64 27.41 -31.79 29.87 -34.31 32.75 C-37.91 36.76 -41.48 40.49 -45.62 43.93 C-47.72 45.76 -49.74 47.64 -51.76 49.57 C-52.43 50.21 -53.11 50.86 -53.81 51.52 C-55.18 52.83 -56.54 54.15 -57.9 55.47 C-59.55 57.03 -61.27 58.53 -63 60 C-63.66 59.67 -64.32 59.34 -65 59 C-57.92 49.82 -48.89 42.09 -40.06 34.62 C-35.96 31.11 -32.28 27.3 -28.56 23.38 C-23.89 18.7 -18.72 14.73 -13.49 10.7 C-9.55 7.65 -5.71 4.48 -1.89 1.27 C-1.27 0.85 -0.64 0.43 0 0 Z M-69 63 C-69 63.99 -69 64.98 -69 66 C-69.99 66 -70.98 66 -72 66 C-71.01 65.01 -70.02 64.02 -69 63 Z " fill="#D8EAEE" transform="translate(445,648)"/>
<path d="M0 0 C5.77 5.77 5.35 13.12 5.75 20.89 C6 24 6 24 7 27 C7.2 28.96 7.36 30.91 7.5 32.88 C7.71 35.89 7.94 38.74 8.59 41.7 C9 44 9 44 8 47 C9.32 47.66 10.64 48.32 12 49 C11.67 49.99 11.34 50.98 11 52 C10.34 52 9.68 52 9 52 C9 51.34 9 50.68 9 50 C8.34 50 7.68 50 7 50 C7 50.66 7 51.32 7 52 C6.01 52 5.02 52 4 52 C3.94 51.23 3.89 50.47 3.83 49.68 C3.58 46.2 3.32 42.73 3.06 39.25 C2.98 38.04 2.89 36.84 2.8 35.59 C2.71 34.43 2.62 33.27 2.54 32.08 C2.46 31.01 2.38 29.94 2.3 28.84 C2 26 2 26 1 22 C0.86 20.27 0.75 18.53 0.68 16.8 C0.64 15.82 0.6 14.84 0.56 13.83 C0.52 12.81 0.48 11.8 0.44 10.75 C0.39 9.72 0.35 8.69 0.31 7.62 C0.2 5.08 0.1 2.54 0 0 Z " fill="#E1F1F3" transform="translate(590,728)"/>
<path d="M0 0 C4 3 4 3 4.5 6.44 C3.93 10.52 3.33 11.66 0 14 C-3.16 15.22 -4.53 15.16 -7.75 14.06 C-11.08 11.01 -10.93 8.41 -11 4 C-8.01 -1.98 -6.23 -1.29 0 0 Z " fill="#C3F4F0" transform="translate(518,655)"/>
<path d="M0 0 C3.33 0.28 4.79 0.81 7.31 3.06 C9.58 7.02 9.55 9.5 9 14 C6.43 18.96 3.02 22.49 -2 25 C-4.27 25.15 -6.54 25.22 -8.81 25.25 C-9.42 25.26 -9.42 25.26 -12.52 25.33 C-17.26 24.88 -19.85 23.43 -22.81 19.75 C-24.92 14.87 -24.77 11.42 -22.25 6.75 C-17.55 1 -17.55 1 -14 1 C-14 1.66 -14 2.32 -14 3 C-14.78 3.45 -15.57 3.91 -16.38 4.38 C-19 6 -19 6 -21 10 C-21.22 14.03 -20.98 17.07 -20 21 C-16.31 21.92 -13.34 22.2 -9.56 22.25 C-8.45 22.28 -7.34 22.3 -6.19 22.33 C-1.64 21.86 0.96 20.29 3.81 16.75 C5.72 12.34 5.5 8.51 4 4 C2.68 3.34 1.36 2.68 0 2 C0 1.34 0 0.68 0 0 Z " fill="#C0E9E7" transform="translate(623,543)"/>
<path d="M0 0 C3 2 3 2 3.44 5.38 C2.93 9.55 2.52 10.75 -1 13 C-4.69 13.44 -4.69 13.44 -8 13 C-8.33 12.01 -8.66 11.02 -9 10 C-9.66 10 -10.32 10 -11 10 C-11.5 1.11 -8.71 -0.68 0 0 Z " fill="#C2F4F3" transform="translate(491,700)"/>
</svg>
