<?xml version="1.0" encoding="UTF-8"?>
<!-- Generator: visioncortex VTracer 0.6.5 -->
<svg version="1.1" xmlns="http://www.w3.org/2000/svg" width="1024" height="1024">
<path d="M0 0 C1.68 0.97 3.35 1.97 5 3 C6.82 3.7 8.66 4.37 10.5 5 C24.85 10.4 38.53 18.11 51 27 C51.82 27.55 52.64 28.1 53.48 28.66 C85.41 50.17 85.41 50.17 88 65 C89.44 64.67 90.89 64.34 92.38 64 C95.95 63.18 98.92 63.01 102.62 63.07 C107.61 63.09 112.26 62.4 117.17 61.52 C127.57 59.81 137.78 59.57 148.3 59.66 C151.29 59.69 154.28 59.68 157.28 59.68 C159.21 59.68 161.14 59.69 163.08 59.7 C163.96 59.7 164.84 59.7 165.75 59.7 C171.12 59.76 175.84 60.54 181 62 C182.74 62.22 184.5 62.39 186.25 62.5 C192.24 62.97 198.09 63.95 204 65 C206 65.34 208 65.67 210 66 C209.76 65.28 209.52 64.56 209.27 63.82 C208.72 58.1 214.36 53.96 218 50 C218.91 49.01 219.81 48.02 220.75 47 C232.48 34.76 246.46 25.58 261 17 C261.85 16.49 262.7 15.98 263.58 15.46 C296.44 -3.98 296.44 -3.98 312 2 C323.11 11.5 325.84 26.02 328.94 39.56 C329.2 40.72 329.47 41.88 329.74 43.07 C330.5 46.38 331.25 49.69 332 53 C332.35 54.53 332.7 56.06 333.06 57.64 C333.19 58.25 333.19 58.25 333.88 61.31 C333.99 61.82 333.99 61.82 334.55 64.36 C335 67 335 67 335 72 C335.33 72.99 335.66 73.98 336 75 C336.27 80.83 336.25 86.67 336.25 92.5 C336.25 93.34 336.25 94.19 336.25 95.05 C336.24 107.32 335.78 119 333 131 C332.76 132.26 332.51 133.52 332.26 134.82 C329.31 148.19 322.17 162.66 312 172 C308.18 170.73 308.22 169.65 307 166 C307.13 166.73 307.13 166.73 307.81 170.44 C307.9 170.94 307.9 170.94 308.36 173.48 C308.81 175.97 309.27 178.46 309.73 180.95 C311.29 189.52 312.58 198.06 313.57 206.71 C314 210 314 210 315 214 C314.97 216 314.87 218 314.73 219.99 C314.65 221.16 314.56 222.34 314.48 223.55 C314.38 224.79 314.29 226.03 314.19 227.31 C314.09 228.58 314 229.85 313.9 231.15 C313.23 239.82 312.36 248.41 311 257 C310.85 258.08 310.69 259.16 310.54 260.28 C309.65 266.23 308.19 271.37 306 277 C305.84 278.2 305.67 279.39 305.5 280.62 C304.96 284.29 303.73 286.75 302 290 C301.67 291.32 301.34 292.64 301 294 C300.11 295.86 299.17 297.69 298.19 299.5 C297.69 300.44 297.18 301.38 296.67 302.34 C295.02 304.97 293.21 306.85 291 309 C290.71 309.76 290.42 310.53 290.12 311.31 C288.5 315.2 285.79 317.87 283 321 C282.5 321.66 282.5 321.66 280 325 C279.34 325 278.68 325 278 325 C277.34 326.32 276.68 327.64 276 329 C264.22 339.49 242.77 356 226 356 C226 356.66 226 357.32 226 358 C225.07 358.11 224.14 358.22 223.18 358.33 C216.6 359.18 211.02 360.1 205 363 C201.02 364.4 197.01 365.7 193 367 C194.58 377.4 198.57 380.73 207.7 385.34 C216.25 389.65 223.16 395.54 230.35 401.82 C232.64 403.81 234.94 405.78 237.27 407.71 C245.87 414.84 253.72 422.56 261.54 430.53 C265.41 434.45 269.26 438.31 273.43 441.91 C277.03 445.03 279.95 448.35 283 452 C283.39 452.37 283.39 452.37 285.38 454.25 C294.73 464.05 304.18 477.46 302.73 491.67 C301.19 498.26 297.93 502.69 292 506 C281.23 508.38 271.96 506.44 263 500 C262.14 499.41 261.27 498.82 260.38 498.21 C251 491.68 243.64 484.26 237 475 C236.32 474.2 235.64 473.39 234.94 472.56 C233.18 470.24 231.87 468 230.5 465.44 C228.05 460.91 226.04 457.68 221 456 C222.97 463.54 224.81 470.35 229 477 C230.23 481.93 230.42 486.72 230.72 491.79 C231 495 231 495 232 498 C232.2 499.96 232.36 501.91 232.5 503.88 C232.71 506.89 232.94 509.74 233.59 512.7 C234 515 234 515 233 518 C234.32 518.66 235.64 519.32 237 520 C236.67 520.99 236.34 521.98 236 523 C235.34 523 234.68 523 234 523 C234 522.34 234 521.68 234 521 C233.34 521 232.68 521 232 521 C231.99 521.84 231.97 522.69 231.96 523.56 C231.47 536.55 229.41 549.21 227.39 562.04 C226.22 569.48 225.15 576.93 224.12 584.39 C222.38 596.9 220.52 609.37 218.31 621.81 C218.11 622.96 217.91 624.11 217.7 625.3 C215.75 636.04 213.7 642.83 205 650 C204.5 650.5 204.5 650.5 202 653 C195.32 656.65 189.62 658.2 182 657 C178.69 655.19 178.69 655.19 176 653 C175.5 652.79 175.5 652.79 173 651.75 C163.6 646.26 162.63 637.76 161.71 627.85 C161.06 619.58 160.97 611.44 161.18 603.16 C161.23 600.59 161.27 598.02 161.3 595.45 C161.36 591.45 161.44 587.46 161.55 583.46 C161.65 579.57 161.7 575.68 161.75 571.78 C161.79 570.59 161.83 569.39 161.88 568.16 C161.9 562.43 161.9 558.94 157.18 555.28 C153.09 553.05 150.65 551.74 146 552 C143.31 554.25 143.31 554.25 141 557 C139.68 557.99 138.36 558.98 137 560 C136.45 562.32 136.45 562.32 136.39 565.06 C136.36 566.07 136.33 567.09 136.29 568.13 C136.28 569.22 136.26 570.31 136.25 571.44 C136.22 572.57 136.19 573.7 136.16 574.86 C136 581.49 136 588.12 136.06 594.75 C136.1 603.23 135.72 611.66 135.19 620.12 C135.12 621.35 135.05 622.57 134.97 623.83 C134.25 634.38 133.17 642.85 125.25 650.56 C124.24 651.57 123.24 652.59 122.2 653.63 C115.82 658.36 107.51 657.51 100 656 C87.99 651.4 83.2 641.87 79.97 630.09 C78.19 622.57 77.1 614.95 76 607.31 C75.74 605.58 75.48 603.84 75.23 602.1 C74.71 598.66 74.2 595.21 73.7 591.76 C73.09 587.64 72.47 583.52 71.83 579.4 C66.71 546.13 63.57 514.73 68.94 481.31 C69.1 480.32 69.25 479.33 69.41 478.31 C70.43 472.28 71.97 466.77 74 461 C74.43 459.32 74.84 457.64 75.19 455.94 C75.46 454.64 75.72 453.34 76 452 C71.1 457.2 67.53 462.23 64.26 468.58 C63 471 63 471 61 474 C60.34 474 59.68 474 59 474 C59 474.66 59 475.32 59 476 C57.37 477.7 55.69 479.36 54 481 C51.25 484.01 48.53 487.03 45.82 490.06 C43.03 492.96 40.13 495.48 37 498 C36.2 498.68 35.39 499.36 34.56 500.06 C25.92 506.6 17.26 509.28 6.62 506.96 C1.32 505.02 -2.53 501.42 -5.44 496.62 C-8.77 481.05 -3.88 470.06 6.54 458.77 C10.56 454.51 14.66 450.33 18.82 446.2 C21 444 21 444 23.31 441.12 C26 438 28.83 435.45 31.96 432.79 C33.88 431.1 35.7 429.3 37.5 427.5 C40.59 424.41 43.75 421.57 47.05 418.73 C48.82 417.16 50.48 415.46 52.12 413.75 C56.53 409.26 61.55 405.54 66.52 401.7 C69.39 399.47 72.2 397.19 75 394.88 C82.1 389.17 89.85 384.07 98 380 C99.48 377.47 99.48 377.47 100.75 374.5 C101.18 373.52 101.61 372.54 102.05 371.53 C103 369 103 369 103 367 C100.64 366.1 98.23 365.31 95.81 364.56 C88.53 362.32 88.53 362.32 85.31 360.38 C81.76 358.26 78.06 358.36 74 358 C73.67 357.67 73.34 357.34 73 357 C70.52 356.52 68.03 356.04 65.54 355.6 C61.74 354.7 58.49 352.74 55 351 C53.62 350.59 52.24 350.17 50.81 349.75 C45.56 348.05 41.46 345.18 37 342 C36.06 341.38 35.13 340.77 34.16 340.13 C30.73 337.82 27.42 335.38 24.12 332.88 C22.97 332.01 21.82 331.14 20.63 330.24 C18 328 18 328 18 326 C16.68 325.34 15.36 324.68 14 324 C12.22 322.16 12.22 322.16 10.5 320.06 C8.08 317.12 6.14 315.36 3 313 C-0.81 306.72 -3.51 299.89 -6 293 C-6.46 292.14 -6.92 291.27 -7.39 290.38 C-9.41 286.13 -10.72 281.76 -12 277.25 C-12.25 276.43 -12.5 275.6 -12.75 274.75 C-16.97 260.05 -18.49 245.23 -18.76 230 C-18.81 227.37 -18.89 224.74 -18.97 222.1 C-19.35 206.81 -17.51 192.42 -14.1 177.55 C-14 174 -14 174 -16.22 171.79 C-16.68 171.5 -16.68 171.5 -19 170 C-37.19 148.66 -39.67 118.82 -40 92 C-40.01 91.21 -40.01 91.21 -40.06 87.21 C-39.91 76.79 -37.79 66.45 -36.06 56.19 C-35.98 55.71 -35.98 55.71 -35.58 53.3 C-34.5 47.01 -32.94 41.08 -31 35 C-30.55 33.56 -30.09 32.11 -29.62 30.62 C-20.76 5.4 -20.76 5.4 -11 1 C-6.25 0.81 -6.25 0.81 -2 1 C-1.34 0.67 -0.68 0.34 0 0 Z " fill="#C4D8DE" transform="translate(365,257)"/>
<path d="M0 0 C6.69 11.02 9 21.87 5.88 34.56 C3.76 38.44 1.47 40.32 -2 43 C-3.01 44.66 -4.01 46.33 -5 48 C-11.53 53.73 -16.03 53.48 -24.62 52.44 C-33.76 49.43 -37.49 40.75 -40.25 32.06 C-42.28 21.04 -40.07 11.7 -34.81 1.94 C-25.39 -5.32 -9.15 -8.65 0 0 Z " fill="#2B3032" transform="translate(609,485)"/>
<path d="M0 0 C0.51 0.05 0.51 0.05 3.11 0.28 C11.84 1.24 15.12 3.82 19.46 11.64 C24.83 22.77 24.99 35.05 19 46 C14.74 52.21 10.57 56.37 3 58 C-2.38 57.86 -6.9 57.65 -11 54 C-12.3 51.73 -13.48 49.41 -14.67 47.07 C-16.52 44.19 -18.95 43.42 -22 42 C-26.04 33.92 -23.45 26.41 -20.62 18.44 C-20.47 17.98 -20.47 17.98 -19.66 15.65 C-19.05 13.88 -18.44 12.11 -17.81 10.34 C-17.14 8.4 -16.51 6.43 -15.9 4.47 C-13.24 -2.85 -6.3 -0.97 0 0 Z " fill="#2B3133" transform="translate(435,481)"/>
<path d="M0 0 C1.82 2.55 1.82 2.55 3.84 6.1 C4.57 7.37 5.31 8.65 6.06 9.97 C6.83 11.32 7.59 12.67 8.38 14.06 C9.88 16.7 11.39 19.34 12.9 21.97 C13.57 23.15 14.23 24.33 14.92 25.54 C17.1 29.17 19.52 32.57 22 36 C23.18 38.08 24.31 40.18 25.38 42.31 C25.64 42.83 25.64 42.83 26.96 45.43 C28 48 28 48 27 50 C24.01 50.69 21.01 51.36 18 52 C16.68 52.66 15.36 53.32 14 54 C8.85 51.23 7.83 47.32 6 42 C5.34 41.67 4.68 41.34 4 41 C3.67 39.68 3.34 38.36 3 37 C2.01 35.68 1.02 34.36 0 33 C-1.55 30.21 -3.03 27.39 -4.5 24.56 C-6 22 -6 22 -9 19 C-9.14 18.15 -9.29 17.31 -9.44 16.44 C-10 14 -10 14 -14 12 C-14.66 10.68 -15.32 9.36 -16 8 C-14.6 7.42 -13.2 6.84 -11.75 6.25 C-7.44 4.36 -4.48 0 0 0 Z " fill="#B7F8F5" transform="translate(528,194)"/>
<path d="M0 0 C4 2 4 2 7 5 C8.09 5.62 9.19 6.24 10.31 6.88 C11.2 7.58 12.09 8.28 13 9 C11.98 12.72 10.01 15.69 7.88 18.88 C5.04 23.24 2.53 27.69 0.12 32.31 C-2.69 37.62 -5.58 42.86 -8.69 48 C-9.39 49.18 -10.1 50.35 -10.82 51.56 C-13 54 -13 54 -15.47 53.93 C-16.31 53.62 -17.14 53.31 -18 53 C-19.57 52.73 -21.13 52.46 -22.75 52.19 C-24.15 51.8 -25.56 51.4 -27 51 C-28.3 45.79 -26.97 44.58 -24.25 40.06 C-23.53 38.86 -22.82 37.65 -22.08 36.41 C-21.39 35.28 -20.71 34.16 -20 33 C-19.52 32.19 -19.03 31.37 -18.53 30.53 C-16.48 27.14 -14.36 23.79 -12.25 20.44 C-8.02 13.71 -3.95 6.9 0 0 Z " fill="#B5F8F5" transform="translate(496,193)"/>
<path d="M0 0 C2.35 -0.09 4.7 -0.18 7.05 -0.27 C7.61 -0.31 7.61 -0.31 10.44 -0.52 C13.43 -0.59 15.69 -0.65 18.49 0.41 C20.22 3.67 20.31 6.79 20.49 10.41 C20.8 12.09 21.13 13.75 21.49 15.41 C14.45 17.14 7.07 16.8 -0.15 16.97 C-2.84 17.04 -5.53 17.12 -8.21 17.2 C-30.01 17.78 -30.01 17.78 -38.51 16.41 C-40.03 13.37 -38.72 11.5 -37.63 8.35 C-37.26 7.27 -36.9 6.18 -36.52 5.07 C-35.51 2.41 -35.51 2.41 -34.51 1.41 C-32.82 1.25 -31.12 1.16 -29.42 1.1 C-28.34 1.05 -27.25 1.01 -26.14 0.97 C-21.21 0.81 -16.29 0.67 -11.36 0.54 C-7.57 0.42 -3.79 0.21 0 0 Z " fill="#BAF7F5" transform="translate(520.5078125,252.5859375)"/>
<path d="M0 0 C3.95 4.51 3.96 6.65 3.06 12.5 C1.12 17.35 -0.91 18.84 -5.81 20.06 C-10.4 20.73 -13.1 20.31 -16.94 17.5 C-20.39 12.9 -21.71 9.5 -20.25 3.81 C-15.4 -4.74 -7.93 -5.04 0 0 Z " fill="#B4F8F5" transform="translate(520.9375,175.5)"/>
<path d="M0 0 C3.7 3.17 4.9 6.15 5 11 C3.36 16.09 2.37 17.72 -2 21 C-8.79 22.79 -13.21 21.31 -18.56 16.88 C-21.13 11.74 -18.94 7.01 -16.62 2.06 C-12.08 -3.71 -6.13 -1.97 0 0 Z " fill="#B5F8F5" transform="translate(564,249)"/>
<path d="M0 0 C4.41 2.59 6.04 5 7 10 C6.84 15.33 6.64 18.95 2 22 C-4.13 23.8 -8.3 22.42 -14 20 C-14.33 19.01 -14.66 18.02 -15 17 C-15.66 17 -16.32 17 -17 17 C-15.62 4.07 -15.62 4.07 -10 0 C-6.6 -1.7 -3.64 -0.71 0 0 Z " fill="#B5F8F5" transform="translate(472,248)"/>
</svg>
